<svg xmlns="http://www.w3.org/2000/svg" viewBox="0 0 76.94 51.29"><title>spkt_logo_w_mini</title><path d="M38.47,2.35a23.3,23.3,0,1,1-23.3,23.3,23.3,23.3,0,0,1,23.3-23.3Zm0,.32a23,23,0,1,0,23,23A23,23,0,0,0,38.47,2.67Z" style="fill:#fff;fill-rule:evenodd"/><path d="M21.08,22.67l4.62-1.79a.62.62,0,0,1,.83.3h0a.64.64,0,0,1-.43.78l-4.62,1.79a.62.62,0,0,1-.83-.3h0a.64.64,0,0,1,.43-.78Zm.08,1.76a.71.71,0,0,0-.49.88h0a.72.72,0,0,0,.95.34l5.28-2a.71.71,0,0,0,.49-.88h0a.72.72,0,0,0-.95-.33l-5.28,2Zm.11,1.89L27,24.17a.77.77,0,0,1,1,.36h0a.77.77,0,0,1-.52.94l-5.68,2.16a.78.78,0,0,1-1-.36h0a.77.77,0,0,1,.52-.95Zm.35,1.87,6-2.27a.81.81,0,0,1,1.07.38h0a.81.81,0,0,1-.55,1l-6,2.26a.81.81,0,0,1-1.07-.38h0a.81.81,0,0,1,.55-1Zm.36,1.9a.89.89,0,0,0-.6,1.08h0a.84.84,0,0,0,.95.46C25.78,33,28,33.39,31.55,34.84c-1.91-.43-2.6-.87-3.41-.34s-.66.72-1.23,5.69a23.38,23.38,0,0,0,6.82,3.43c1.18-6.34,1.62-10.14,1.09-11.23S32.57,30.27,29,29.46c-1.51.49-2.87.87-4.13,1.22L29,29.13a.89.89,0,0,0,.6-1.08h0a.88.88,0,0,0-1.16-.41Z" style="fill:#fff;fill-rule:evenodd"/><path d="M33.76,43.66h0a22.86,22.86,0,0,1-6.82-3.44h0v0c.11-.92.19-1.69.25-2.31.3-2.74.32-3,1-3.4s1.19-.25,2.21,0l.8.21c-1.63-.66-3-1.09-4.36-1.51s-2.77-.86-4.44-1.53a.87.87,0,0,1-1-.49h0a.79.79,0,0,1,.06-.65,1.09,1.09,0,0,1,.56-.47l6.46-2.45a1,1,0,0,1,.79,0,.8.8,0,0,1,.41.42h0a.79.79,0,0,1-.06.65,1.09,1.09,0,0,1-.56.47L25.6,30.45c1.06-.29,2.18-.62,3.42-1h0c3.28.75,5.23,1.74,5.82,2.94s.17,4.52-1.09,11.25ZM27,40.17a23,23,0,0,0,6.75,3.4C35,36.88,35.28,33.43,34.79,32.4S32.27,30.24,29,29.49c-1.52.5-2.87.88-4.12,1.23l0-.07L29,29.1a1,1,0,0,0,.52-.44.68.68,0,0,0,0-.6h0a.69.69,0,0,0-.37-.38,1,1,0,0,0-.74,0L22,30.12a1,1,0,0,0-.52.44.68.68,0,0,0,0,.6h0a.81.81,0,0,0,.92.44h0c1.67.68,3.08,1.11,4.44,1.54s2.95.92,4.77,1.67l0,.06c-.48-.11-.88-.21-1.23-.31-1-.28-1.56-.42-2.15,0s-.67.64-1,3.35C27.14,38.49,27.05,39.25,27,40.17ZM21.79,29.66a1.06,1.06,0,0,1-.31-.05A.72.72,0,0,1,21,29.2h0a.71.71,0,0,1,.06-.6,1,1,0,0,1,.51-.43h0l6-2.27a1,1,0,0,1,.67,0,.69.69,0,0,1,.44.41.67.67,0,0,1-.05.6,1,1,0,0,1-.52.44l-6,2.26A.89.89,0,0,1,21.79,29.66Zm-.69-.49a.66.66,0,0,0,.4.38.91.91,0,0,0,.63,0l6-2.26a.91.91,0,0,0,.51-.47.64.64,0,0,0,0-.49.68.68,0,0,0-.34-.35,1,1,0,0,0-.69,0l-6,2.27h0a.91.91,0,0,0-.48.4.67.67,0,0,0,0,.55Zm.33-1.45a.72.72,0,0,1-.71-.44h0a.7.7,0,0,1,.05-.58,1,1,0,0,1,.49-.41l5.68-2.16a.94.94,0,0,1,.64,0,.68.68,0,0,1,.42.39l0,0h0A.64.64,0,0,1,28,25a1,1,0,0,1-.52.47l-5.68,2.16A1,1,0,0,1,21.43,27.72Zm-.65-.47a.74.74,0,0,0,1,.35l5.67-2.16a.85.85,0,0,0,.49-.44.67.67,0,0,0,0-.46v0a.66.66,0,0,0-.37-.34.89.89,0,0,0-.6,0l-5.67,2.15a.92.92,0,0,0-.46.38.64.64,0,0,0,0,.52Zm.53-1.51a.68.68,0,0,1-.67-.42h0a.59.59,0,0,1,.05-.53.86.86,0,0,1,.45-.39l5.29-2a.86.86,0,0,1,.65,0,.68.68,0,0,1,.34.35l0,.07h0a.65.65,0,0,1,0,.41.87.87,0,0,1-.48.44l-5.29,2A1,1,0,0,1,21.31,25.74Zm-.61-.44a.69.69,0,0,0,.91.32l5.28-2a.81.81,0,0,0,.45-.4.61.61,0,0,0,0-.44v0a.63.63,0,0,0-.29-.29.8.8,0,0,0-.61,0l-5.28,2a.75.75,0,0,0-.42.36.55.55,0,0,0-.05.48Zm.5-1.46a.64.64,0,0,1-.28-.06.55.55,0,0,1-.3-.32l0,0h0a.69.69,0,0,1,.46-.78l4.63-1.79a.78.78,0,0,1,.58,0,.51.51,0,0,1,.26.24h0l0,.08a.67.67,0,0,1-.44.82l-4.63,1.79A.72.72,0,0,1,21.2,23.84Zm-.51-.37a.49.49,0,0,0,.25.24.63.63,0,0,0,.52,0l4.63-1.79a.62.62,0,0,0,.42-.72v0a.46.46,0,0,0-.26-.27.69.69,0,0,0-.53,0L21.09,22.7a.61.61,0,0,0-.41.74Z" style="fill:#fff"/><path d="M56,22.67l-4.63-1.79a.62.62,0,0,0-.83.3h0a.64.64,0,0,0,.43.78l4.63,1.79a.62.62,0,0,0,.82-.3h0a.65.65,0,0,0-.42-.78Zm-.08,1.76a.72.72,0,0,1,.48.88h0a.71.71,0,0,1-1,.34l-5.28-2a.71.71,0,0,1-.49-.88h0a.72.72,0,0,1,.95-.33l5.29,2Zm-.12,1.89-5.68-2.15a.77.77,0,0,0-1,.36h0a.77.77,0,0,0,.53.94l5.67,2.16a.78.78,0,0,0,1-.36h0a.77.77,0,0,0-.52-.95Zm-.35,1.87-6-2.27a.82.82,0,0,0-1.07.38h0a.82.82,0,0,0,.55,1l6,2.26A.81.81,0,0,0,56,29.18h0a.81.81,0,0,0-.55-1ZM55,30.09a.89.89,0,0,1,.6,1.08h0a.84.84,0,0,1-1,.46C51.24,33,49,33.39,45.48,34.84c1.9-.43,2.59-.87,3.4-.34s.59.79,1.16,5.76a26,26,0,0,1-6.75,3.36c-1.18-6.34-1.62-10.14-1.08-11.23s2.24-2.12,5.79-2.93c1.5.49,2.86.87,4.12,1.22L48,29.13a.88.88,0,0,1-.59-1.08h0a.88.88,0,0,1,1.16-.41Z" style="fill:#fff;fill-rule:evenodd"/><path d="M43.27,43.66v0c-1.26-6.73-1.59-10.2-1.08-11.25s2.54-2.19,5.81-2.94h0c1.23.4,2.36.73,3.41,1L48,29.16a1,1,0,0,1-.59-.54.78.78,0,0,1,0-.58h0a.75.75,0,0,1,.4-.42,1.05,1.05,0,0,1,.8,0l6.46,2.45a1.06,1.06,0,0,1,.55.47.75.75,0,0,1,.06.65h0a.87.87,0,0,1-1,.49c-1.67.67-3.07,1.11-4.44,1.53s-2.72.85-4.36,1.51l.8-.21c1-.28,1.59-.43,2.21,0s.65.64.87,2.88c.07.75.16,1.67.3,2.91v0h0a25.47,25.47,0,0,1-6.75,3.36ZM48,29.49c-3.24.75-5.18,1.73-5.75,2.91s-.17,4.48,1.08,11.17A25.57,25.57,0,0,0,50,40.24c-.14-1.22-.23-2.14-.3-2.88-.22-2.21-.24-2.45-.84-2.83s-1.11-.25-2.15,0c-.35.1-.75.2-1.23.31l0-.06c1.82-.75,3.32-1.22,4.77-1.67s2.78-.86,4.45-1.54h0a.81.81,0,0,0,.92-.44h0a.71.71,0,0,0-.06-.6,1,1,0,0,0-.52-.44l-6.46-2.45a1,1,0,0,0-.74,0,.69.69,0,0,0-.37.38h0a.68.68,0,0,0,0,.54,1,1,0,0,0,.55.5l4.1,1.55,0,.07C50.86,30.37,49.51,30,48,29.49Zm7.24.17a.92.92,0,0,1-.36-.07l-6-2.26a1,1,0,0,1-.55-.5.68.68,0,0,1,0-.54.69.69,0,0,1,.38-.39,1,1,0,0,1,.73,0l6,2.27a1,1,0,0,1,.52.43.68.68,0,0,1,0,.6h0a.72.72,0,0,1-.44.41A1.06,1.06,0,0,1,55.23,29.66Zm-6.15-3.77a.93.93,0,0,0-.29.05.62.62,0,0,0-.35.92.93.93,0,0,0,.48.41l6,2.26a.91.91,0,0,0,.63,0,.66.66,0,0,0,.4-.38h0a.63.63,0,0,0-.05-.55.91.91,0,0,0-.48-.4l-6-2.27A1,1,0,0,0,49.08,25.89Zm6.51,1.83a1.07,1.07,0,0,1-.35-.06L49.56,25.5a.89.89,0,0,1-.48-.41.67.67,0,0,1-.06-.58.68.68,0,0,1,.42-.39.94.94,0,0,1,.64,0l5.68,2.16a.93.93,0,0,1,.52.47.67.67,0,0,1,0,.52h0A.72.72,0,0,1,55.59,27.72Zm-5.85-3.58a.77.77,0,0,0-.27,0,.59.59,0,0,0-.38.36.6.6,0,0,0,0,.52.87.87,0,0,0,.46.38l5.68,2.16a.73.73,0,0,0,1-.35h0a.57.57,0,0,0,0-.46.83.83,0,0,0-.48-.44L50.06,24.2A1,1,0,0,0,49.74,24.14Zm6,1.6a1,1,0,0,1-.33-.06l-5.28-2a.85.85,0,0,1-.49-.44.62.62,0,0,1,0-.48h0a.68.68,0,0,1,.34-.35.86.86,0,0,1,.65,0l5.29,2a.9.9,0,0,1,.48.44.62.62,0,0,1,0,.48h0A.66.66,0,0,1,55.72,25.74Zm-6.06-3h0a.61.61,0,0,0,0,.44.84.84,0,0,0,.45.4l5.29,2a.68.68,0,0,0,.9-.32h0a.54.54,0,0,0,0-.43.79.79,0,0,0-.45-.41h0l-5.28-2a.74.74,0,0,0-.6,0A.54.54,0,0,0,49.66,22.77Zm6.16,1.07a.75.75,0,0,1-.29-.06L50.91,22a.66.66,0,0,1-.45-.82h0a.54.54,0,0,1,.3-.31.75.75,0,0,1,.57,0L56,22.64a.69.69,0,0,1,.46.78h0v0a.59.59,0,0,1-.3.32A.72.72,0,0,1,55.82,23.84Zm-5.3-2.65a.61.61,0,0,0,.41.74l4.63,1.79a.63.63,0,0,0,.52,0,.49.49,0,0,0,.26-.25v0a.61.61,0,0,0-.41-.74l-4.62-1.79a.69.69,0,0,0-.53,0,.49.49,0,0,0-.26.27Z" style="fill:#fff"/><path d="M26.11,18.45l5.76,11.2c5.26-2.41,8.62-1.72,13.31.32l5.63-11.24-.64-.42-.11.25c.13.09.26.18.4.26l-5.41,10.8h0l-.06.13c-4.19-1.82-7.87-2.43-12.89-.32L32,29.29h0L26.47,18.56l.38-.22-.12-.24-.62.35Zm14.53-2.52a19.69,19.69,0,0,0-2.31.4c-.81-.15-1.57-.25-2.28-.31.73.09,1.49.21,2.29.37C39.15,16.2,39.91,16,40.64,15.93Z" style="fill:#fff;fill-rule:evenodd"/><path d="M45.18,30h0c-4.76-2.07-8.13-2.69-13.31-.31h0L26.11,18.45h0l.62-.34h0l.11.25h0a3.47,3.47,0,0,0-.37.21L32,29.3h0l.06.13a17.86,17.86,0,0,1,3.54-1.1,13,13,0,0,1,3.22-.22,14.87,14.87,0,0,1,3,.52A23,23,0,0,1,45,29.73L45,29.6h0l5.4-10.79c-.14-.09-.27-.17-.39-.26h0l.11-.25h0l.63.42h0Zm-7.13-1.85.69,0a13.81,13.81,0,0,1,3.12.58A27.48,27.48,0,0,1,45.18,30L50.8,18.73l-.63-.41-.11.24.4.26h0l-5.4,10.8h0l-.06.13h0c-4-1.75-7.78-2.47-12.89-.32h0L32,29.29h0L26.47,18.55h0l.38-.21-.12-.24-.62.35,5.76,11.2a17.31,17.31,0,0,1,3.64-1.25A11.76,11.76,0,0,1,38.05,28.12Zm.29-11.72h0c-.8-.16-1.57-.29-2.29-.38h0c.72.07,1.49.17,2.28.31a20.27,20.27,0,0,1,2.31-.39h0c-.73.11-1.5.26-2.3.46ZM36.2,16c.67.09,1.39.21,2.14.36.74-.18,1.46-.33,2.15-.44-.69.09-1.42.21-2.16.38h0C37.59,16.2,36.87,16.1,36.2,16Z" style="fill:#fff"/><path d="M26.51,17.63l5.57,11.79a16,16,0,0,1,5.12-1.3,13.43,13.43,0,0,0-4.83,1.14l-.09-.21-.06,0L26.87,17.74l.62-.35-.1-.25c-.3.15-.59.31-.88.49ZM43.42,29.12c.51.18,1,.39,1.55.62l5.4-11.86c-.27-.2-.55-.38-.84-.56l-.1.26,0,0L50,18l-5.2,11.41-.19-.08-.09.23C44.17,29.38,43.8,29.24,43.42,29.12Z" style="fill:#fff;fill-rule:evenodd"/><path d="M45,29.74h0c-.55-.24-1.06-.44-1.55-.62h0l1.13.42.09-.23h0l.19.08L50,18l-.55-.36,0,0h0l.1-.26h0c.28.17.56.36.83.56h0Zm-1.25-.51c.4.15.81.31,1.25.5l5.4-11.85c-.28-.2-.55-.38-.83-.55l-.11.25,0,0A6.49,6.49,0,0,1,50,18h0l-5.2,11.41h0l-.19-.08-.09.24h0C44.27,29.43,44,29.32,43.72,29.23Zm-11.64.2h0L26.51,17.63h0c.29-.18.59-.35.88-.5h0l.11.25h0l-.63.35,5.35,11.33.06,0h0l.09.22a13.59,13.59,0,0,1,2.43-.81,12.85,12.85,0,0,1,2.4-.34h0a16.15,16.15,0,0,0-5.12,1.3Zm-5.56-11.8,5.56,11.79A16,16,0,0,1,37,28.13a13.77,13.77,0,0,0-4.58,1.14h0l-.09-.22-.06,0h0L26.86,17.74h0c.21-.13.42-.24.63-.35l-.1-.25C27.1,17.29,26.81,17.46,26.52,17.63Z" style="fill:#fff"/><path d="M27.12,16.48l5.25,12.78c4.16-1.82,8.2-1.31,12.18.27L49.8,16.68c-2.55-2.29-6.56-2.95-11.44-1.48-4.73-1.14-8.49-.81-11.24,1.28Zm.33.09c.22-.15.44-.3.67-.43,3-1.8,6.87-1.47,10.17-.67h.07l.08,0a15.44,15.44,0,0,1,6.47-.66,8.68,8.68,0,0,1,4.56,2L44.4,29.18a19,19,0,0,0-5.8-1.33,13.72,13.72,0,0,0-6.08,1Z" style="fill:#fff;fill-rule:evenodd"/><path d="M44.55,29.54h0c-4.59-1.82-8.46-1.91-12.18-.27h0L27.12,16.48h0a8.66,8.66,0,0,1,2.25-1.24A10.32,10.32,0,0,1,32,14.63a15,15,0,0,1,3,0,24,24,0,0,1,3.36.58,18.55,18.55,0,0,1,3.48-.71,12.86,12.86,0,0,1,3.11,0,9.82,9.82,0,0,1,2.67.74,8.41,8.41,0,0,1,2.18,1.41h0Zm-6.7-1.44.67,0a18.71,18.71,0,0,1,6,1.41l5.24-12.85a9.48,9.48,0,0,0-6.51-2.26,17.32,17.32,0,0,0-4.92.78h0c-4.88-1.18-8.55-.76-11.24,1.28l5.25,12.78a14,14,0,0,1,3.1-1A13.33,13.33,0,0,1,37.85,28.1Zm6.55,1.09h0a18.91,18.91,0,0,0-5.8-1.33,13.77,13.77,0,0,0-6.08,1.06h0L27.45,16.57h0c.21-.15.44-.3.66-.43a9.1,9.1,0,0,1,2.42-1,11.59,11.59,0,0,1,2.58-.33,17.26,17.26,0,0,1,2.63.15,24.53,24.53,0,0,1,2.55.48l.07,0,.07,0a15.29,15.29,0,0,1,6.48-.66,9.06,9.06,0,0,1,2.43.65,7.83,7.83,0,0,1,2.13,1.31h0Zm-6.55-1.36c.25,0,.5,0,.75,0a18.51,18.51,0,0,1,5.79,1.33l5.08-12.42a8.73,8.73,0,0,0-4.56-2,15.39,15.39,0,0,0-6.47.66l-.08,0h0l-.07,0c-4.3-1-7.63-.82-10.17.67a7.48,7.48,0,0,0-.66.43L32.52,28.9a14,14,0,0,1,3-.87A14.18,14.18,0,0,1,37.85,27.83Z" style="fill:#fff"/><path d="M38.33,14.19a3.58,3.58,0,0,1-3.27-2.3c-.43-1.46,1-2.38.45-4.43.91.33.64.86,1,2,.24-1.12-.28-2.36.82-3s-1.82-1.76.58-2.85c-.76.86-.51.86.59,1.82.77.67.27,1.33.26,2.26.3-.81.23-.92,1-1.53-.34,1.1.06,1.51.1,2.24.57-.1.19-1.2.76-1.3-.46,1.61,1.48,3.45,1,4.88a3.23,3.23,0,0,1-3.24,2.16Zm.57-1.36c.36-1.15-.39-2,.12-3,.29-.62-.45-1.5-.8-2.08.15,1.46-.93,2.35-.72,3.3.34,1.59,1.24.44,1.4,1.82ZM35.84,9.28a3.56,3.56,0,0,0-.36,2.3c.36-.09.56.3.6,1.16C36.53,10.77,35.47,11.27,35.84,9.28Z" style="fill:#fff;fill-rule:evenodd"/><path d="M38.79,17.45a4.28,4.28,0,0,1,2.2.91l.66-.66.67.67-.66.66a4.25,4.25,0,0,1,.91,2.19h.94c0,.32,0,.63,0,.94h-.93a4.25,4.25,0,0,1-.91,2.19l.65.68-.67.65L41,25a4.28,4.28,0,0,1-2.2.91c0,.32,0,.63,0,.95l-.94,0c0-.3,0-.61,0-.92A4.25,4.25,0,0,1,35.66,25l-.69.65c-.22-.23-.43-.46-.65-.68l.67-.64a4.25,4.25,0,0,1-.91-2.19l-.95,0,0-.94.92,0A4.17,4.17,0,0,1,35,19l-.65-.71.7-.63.62.67a4.25,4.25,0,0,1,2.19-.91v-.94h.94v.94Zm-.47,1a3.23,3.23,0,1,0,3.23,3.22A3.23,3.23,0,0,0,38.32,18.47Z" style="fill:#fff;fill-rule:evenodd"/><path d="M38.84,27l-1.08,0,0-.93a4.38,4.38,0,0,1-2.12-.88l-.69.65L34.23,25l.67-.63A4.32,4.32,0,0,1,34,22.23l-1,0,0-1.07.92,0A4.28,4.28,0,0,1,34.9,19l-.65-.71.79-.73.62.68a4.28,4.28,0,0,1,2.13-.88v-.94h1.07v.94a4.28,4.28,0,0,1,2.13.88l.66-.66.76.76-.66.66a4.37,4.37,0,0,1,.88,2.13h.95v1.07h-.94a4.29,4.29,0,0,1-.89,2.13l.67.68-.77.75L41,25.12a4.38,4.38,0,0,1-2.12.88Zm-.94-.15.81,0,0-.94h.06A4.13,4.13,0,0,0,41,25l0,0,.65.66.58-.57-.65-.66,0-.05a4.11,4.11,0,0,0,.9-2.16V22.1h.92V21.3h-.93v-.06a4,4,0,0,0-.9-2.16l0-.05.65-.65-.57-.58-.65.66,0,0a4.2,4.2,0,0,0-2.16-.9h-.06v-.93h-.81v.93h-.06a4.2,4.2,0,0,0-2.16.9l-.05,0L35,17.78l-.59.55.64.69,0,.05a4.2,4.2,0,0,0-.9,2.16v.06l-.92,0,0,.81,1,0v.06a4.2,4.2,0,0,0,.9,2.16l0,.05-.66.63.55.58.68-.64.05,0a4.1,4.1,0,0,0,2.16.89h.06ZM38.32,25a3.3,3.3,0,1,1,3.3-3.3A3.3,3.3,0,0,1,38.32,25Zm0-6.46a3.16,3.16,0,1,0,3.16,3.16A3.17,3.17,0,0,0,38.32,18.53Z" style="fill:#fff"/><polygon points="37.15 16.71 39.61 16.71 39.08 27.59 37.56 27.59 37.15 16.71" style="fill:#fff;fill-rule:evenodd"/><path d="M39.14,27.66H37.49l-.41-11h2.6v.07Zm-1.52-.14H39l.52-10.74H37.21Z" style="fill:#fff"/><path d="M38.42,17.09s0,0-.05,0a2.58,2.58,0,0,1-1.76-2.61c0-1.35,1.22-2.1,1.63-4l0-.17a19.21,19.21,0,0,1,.15,6.78Zm-.11-.28a18.58,18.58,0,0,0-.05-5.62,5.66,5.66,0,0,1-.46,1.1c-.22.41-.53.86-.71,1.29a2.46,2.46,0,0,0,1.22,3.23Z" style="fill:#fff;fill-rule:evenodd"/><path d="M38.26,10.31v0c0,.06,0,.11.08.18C39.2,11.83,40,12.58,40,14a3.08,3.08,0,0,1-1.59,3.07h0a19,19,0,0,0-.15-6.78Zm.27.83a16.74,16.74,0,0,1,.06,5.6A3,3,0,0,0,39.77,14a3.19,3.19,0,0,0-.29-1.28A8.47,8.47,0,0,0,38.53,11.14Z" style="fill:#fff;fill-rule:evenodd"/><path d="M54.9,10.73a22.17,22.17,0,1,1-32.85,0h4.68a18.94,18.94,0,1,0,23.48,0Z" style="fill:#fff;fill-rule:evenodd"/></svg>