<svg xmlns="http://www.w3.org/2000/svg" viewBox="0 0 269.29 51.29"><title>spkt_logo_w</title><path d="M75.36,43V9.22h9.06V22.33h7.15V9.22h9.07V43H91.57V29.17H84.42V43Zm55.48-22h-8.45a9.81,9.81,0,0,0-.71-3.94,3.3,3.3,0,0,0-3.12-2.24c-1.75,0-3,1.1-3.63,3.28a29.74,29.74,0,0,0-.8,8q0,6.07.7,8.26a3.85,3.85,0,0,0,3.93,3,3.53,3.53,0,0,0,3.37-1.81,11,11,0,0,0,.86-5l7.85.67a12.35,12.35,0,0,1-3.32,9q-3.31,3.41-9.16,3.4-7.56,0-11.13-5.51-2.87-4.47-2.87-12.06,0-7.32,2.82-11.83,3.63-5.75,11.18-5.74,6.19,0,9.46,3.6a12.63,12.63,0,0,1,3,8.84Zm3.43,22V9.22H147l3.93,19,4.61-19H167.9V43h-9.06v-25l-6.35,25h-5.43L141.32,17.2,141.22,43ZM196.7,9.22V32.3q0,5.7-3.17,8.55t-9.22,2.85c-4,0-7-1-8.93-2.92s-2.95-4.78-2.95-8.48V9.22h9.06V32.68A5.69,5.69,0,0,0,182.3,36a3.56,3.56,0,0,0,3.12,1.43,3.18,3.18,0,0,0,3-1.62,7.53,7.53,0,0,0,.71-3.6v-23Zm2.11,6.55V9.22h25.28v6.55H216V43H207V15.77ZM228.52,43V9.22h22.55v6.55H237.58v6.84h9.06v6.56h-9.06v7h13.49V43Z" style="fill:#fff;fill-rule:evenodd"/><path d="M38.82,3.06a23.3,23.3,0,1,1-23.3,23.3,23.3,23.3,0,0,1,23.3-23.3Zm0,.33a23,23,0,1,0,23,23A23,23,0,0,0,38.82,3.39Z" style="fill:#fff;fill-rule:evenodd"/><path d="M21.42,23.38l4.63-1.79a.63.63,0,0,1,.83.3h0a.63.63,0,0,1-.43.78l-4.63,1.79a.62.62,0,0,1-.83-.29h0a.66.66,0,0,1,.43-.79Zm.08,1.77A.71.71,0,0,0,21,26h0a.72.72,0,0,0,.95.33l5.29-2a.72.72,0,0,0,.49-.88h0a.72.72,0,0,0-.95-.33l-5.29,2ZM21.62,27l5.68-2.15a.76.76,0,0,1,1,.36h0a.76.76,0,0,1-.52.94l-5.67,2.16a.77.77,0,0,1-1-.36h0a.77.77,0,0,1,.52-.95ZM22,28.9l6-2.26A.82.82,0,0,1,29,27h0a.82.82,0,0,1-.55,1l-6,2.26a.81.81,0,0,1-1.07-.37h0a.81.81,0,0,1,.55-1Zm.36,1.9a.88.88,0,0,0-.6,1.08h0a.83.83,0,0,0,.95.47c3.45,1.38,5.69,1.75,9.21,3.2-1.9-.43-2.59-.86-3.4-.34s-.66.72-1.23,5.69a23.14,23.14,0,0,0,6.82,3.43C35.26,38,35.69,34.2,35.16,33.1S32.92,31,29.37,30.17c-1.5.49-2.86.88-4.12,1.23l4.1-1.56a.88.88,0,0,0,.59-1.08h0a.88.88,0,0,0-1.16-.41Z" style="fill:#fff;fill-rule:evenodd"/><path d="M34.1,44.37h0a23.09,23.09,0,0,1-6.83-3.43h0v0c.1-.93.18-1.7.25-2.32.29-2.74.32-3,1-3.4s1.18-.25,2.21,0l.8.21c-1.64-.66-3-1.09-4.37-1.5s-2.77-.87-4.43-1.54a.87.87,0,0,1-1-.49h0a.75.75,0,0,1,.06-.65,1.06,1.06,0,0,1,.55-.47l6.46-2.45a1.1,1.1,0,0,1,.8,0,.78.78,0,0,1,.4.42h0a.75.75,0,0,1-.06.65,1,1,0,0,1-.55.47L26,31.16c1.05-.29,2.18-.62,3.41-1h0c3.27.75,5.23,1.74,5.81,3,.51,1,.17,4.51-1.08,11.24Zm-6.8-3.49a22.78,22.78,0,0,0,6.75,3.41c1.25-6.7,1.58-10.15,1.08-11.18s-2.51-2.16-5.76-2.9c-1.51.49-2.86.87-4.11,1.22l0-.07,4.11-1.55a1,1,0,0,0,.51-.44.69.69,0,0,0,.06-.59h0a.67.67,0,0,0-.37-.39,1,1,0,0,0-.75,0l-6.45,2.46a1,1,0,0,0-.52.43.71.71,0,0,0-.06.6h0a.8.8,0,0,0,.91.44h0c1.67.67,3.08,1.11,4.44,1.53s3,.92,4.78,1.67l0,.06c-.48-.1-.88-.21-1.23-.31-1-.28-1.56-.42-2.16,0s-.67.64-.95,3.35C27.48,39.2,27.4,40,27.3,40.88ZM22.14,30.37a.81.81,0,0,1-.31-.05.69.69,0,0,1-.44-.41h0a.7.7,0,0,1,.05-.61,1,1,0,0,1,.51-.43h0l6-2.27a1,1,0,0,1,.68,0A.69.69,0,0,1,29,27a.73.73,0,0,1-.06.61,1,1,0,0,1-.51.43l-6,2.27A1.13,1.13,0,0,1,22.14,30.37Zm-.69-.49a.63.63,0,0,0,.4.38.91.91,0,0,0,.63,0l6-2.26a.91.91,0,0,0,.5-.46A.65.65,0,0,0,29,27a.6.6,0,0,0-.35-.35.84.84,0,0,0-.68,0l-6,2.26h0a.93.93,0,0,0-.48.41.61.61,0,0,0-.05.54Zm.33-1.45a.75.75,0,0,1-.72-.44h0a.67.67,0,0,1,.05-.58,1,1,0,0,1,.49-.41l5.67-2.15a.94.94,0,0,1,.64,0,.66.66,0,0,1,.43.4v0h0a.7.7,0,0,1,0,.47.87.87,0,0,1-.52.47l-5.67,2.16A1.12,1.12,0,0,1,21.78,28.43ZM21.13,28a.74.74,0,0,0,1,.34l5.68-2.16a.85.85,0,0,0,.48-.43.59.59,0,0,0,0-.47v0a.68.68,0,0,0-.38-.34.86.86,0,0,0-.59,0l-5.68,2.15a.83.83,0,0,0-.45.39.6.6,0,0,0-.05.52Zm.52-1.52A.69.69,0,0,1,21,26h0A.69.69,0,0,1,21,25.5a.93.93,0,0,1,.46-.39l5.29-2a.82.82,0,0,1,.65,0,.63.63,0,0,1,.34.34l0,.08h0a.64.64,0,0,1,0,.41.9.9,0,0,1-.49.45l-5.28,2A1,1,0,0,1,21.65,26.45Zm-.6-.44a.68.68,0,0,0,.9.32l5.29-2a.76.76,0,0,0,.44-.4.5.5,0,0,0,0-.43v0a.57.57,0,0,0-.3-.29.78.78,0,0,0-.6,0l-5.29,2a.81.81,0,0,0-.42.35.55.55,0,0,0,0,.48Zm.5-1.46a.72.72,0,0,1-.29-.06.6.6,0,0,1-.3-.31v-.05h0a.68.68,0,0,1,.46-.78L26,21.56a.75.75,0,0,1,.57,0,.58.58,0,0,1,.27.24h0l0,.07a.67.67,0,0,1-.45.82l-4.63,1.79A.71.71,0,0,1,21.55,24.55ZM21,24.18a.47.47,0,0,0,.25.25.67.67,0,0,0,.52,0l4.63-1.79a.61.61,0,0,0,.41-.72v0a.51.51,0,0,0-.27-.27.71.71,0,0,0-.52,0l-4.63,1.79a.6.6,0,0,0-.4.74Z" style="fill:#fff"/><path d="M56.29,23.38l-4.62-1.79a.62.62,0,0,0-.83.3h0a.64.64,0,0,0,.42.78l4.63,1.79a.62.62,0,0,0,.83-.29h0a.65.65,0,0,0-.43-.79Zm-.08,1.77a.71.71,0,0,1,.49.88h0a.72.72,0,0,1-1,.33l-5.29-2a.71.71,0,0,1-.48-.88h0a.72.72,0,0,1,1-.33l5.28,2ZM56.09,27l-5.67-2.15a.77.77,0,0,0-1,.36h0a.76.76,0,0,0,.52.94l5.68,2.16a.78.78,0,0,0,1-.36h0a.78.78,0,0,0-.53-.95Zm-.34,1.87-6-2.26a.81.81,0,0,0-1.07.37h0a.81.81,0,0,0,.55,1l6,2.26a.82.82,0,0,0,1.07-.37h0a.82.82,0,0,0-.55-1Zm-.36,1.9A.88.88,0,0,1,56,31.88h0a.83.83,0,0,1-.95.47c-3.44,1.38-5.68,1.75-9.21,3.2,1.91-.43,2.6-.86,3.41-.34s.58.79,1.15,5.76a25.75,25.75,0,0,1-6.74,3.36C42.46,38,42,34.2,42.55,33.1S44.8,31,48.34,30.17c1.51.49,2.87.88,4.13,1.23l-4.1-1.56a.88.88,0,0,1-.6-1.08h0a.88.88,0,0,1,1.16-.41Z" style="fill:#fff;fill-rule:evenodd"/><path d="M43.61,44.37v0C42.35,37.6,42,34.13,42.52,33.09c.59-1.21,2.54-2.2,5.81-3h0c1.24.4,2.36.73,3.42,1l-3.41-1.29a1.07,1.07,0,0,1-.59-.53.76.76,0,0,1,0-.59h0a.8.8,0,0,1,.41-.42,1.08,1.08,0,0,1,.79,0l6.46,2.45a1.09,1.09,0,0,1,.56.47.83.83,0,0,1,.06.65h0a.87.87,0,0,1-1,.49c-1.67.67-3.08,1.11-4.44,1.54s-2.73.84-4.36,1.5l.8-.21c1-.28,1.59-.43,2.21,0s.64.64.86,2.89c.07.74.16,1.67.3,2.9v0h0a25.77,25.77,0,0,1-6.75,3.36Zm4.73-14.16c-3.25.74-5.18,1.72-5.76,2.9s-.16,4.48,1.08,11.17A25.57,25.57,0,0,0,50.35,41c-.14-1.23-.23-2.15-.31-2.89-.21-2.21-.23-2.44-.83-2.83s-1.12-.25-2.15,0c-.35.1-.75.21-1.23.31l0-.06c1.82-.75,3.32-1.22,4.77-1.67S53.35,33,55,32.32h0a.79.79,0,0,0,.91-.44h0a.75.75,0,0,0-.05-.6,1,1,0,0,0-.52-.43l-6.46-2.46a1,1,0,0,0-.74,0,.72.72,0,0,0-.38.39h0a.7.7,0,0,0,0,.53,1,1,0,0,0,.55.5l4.1,1.55,0,.07C51.2,31.08,49.85,30.7,48.34,30.21Zm7.24.16a1.19,1.19,0,0,1-.37-.06l-6-2.27a1,1,0,0,1-.54-.5.68.68,0,0,1,0-.54.7.7,0,0,1,.37-.39,1,1,0,0,1,.74,0l6,2.27a1,1,0,0,1,.51.43.74.74,0,0,1,.06.61h0a.69.69,0,0,1-.44.41A.84.84,0,0,1,55.58,30.37ZM49.43,26.6a.93.93,0,0,0-.29,0,.63.63,0,0,0-.4.38.61.61,0,0,0,0,.54.89.89,0,0,0,.48.41l6,2.26a.89.89,0,0,0,.62,0,.65.65,0,0,0,.41-.38h0a.65.65,0,0,0-.06-.54,1,1,0,0,0-.47-.41l-6-2.26A.86.86,0,0,0,49.43,26.6Zm6.5,1.83a1,1,0,0,1-.34-.06l-5.68-2.16a.91.91,0,0,1-.49-.41.68.68,0,0,1-.05-.57.67.67,0,0,1,.42-.4.94.94,0,0,1,.64,0L56.11,27a1,1,0,0,1,.52.47.72.72,0,0,1,0,.52h0A.74.74,0,0,1,55.93,28.43Zm-5.85-3.58a.84.84,0,0,0-.27,0,.6.6,0,0,0-.33.88.89.89,0,0,0,.45.38l5.68,2.16a.75.75,0,0,0,1-.34h0a.64.64,0,0,0,0-.47.87.87,0,0,0-.48-.44l-5.67-2.15A1,1,0,0,0,50.08,24.85Zm6,1.6a1,1,0,0,1-.32-.06l-5.29-2a.88.88,0,0,1-.48-.45.62.62,0,0,1,0-.48h0a.58.58,0,0,1,.33-.34.84.84,0,0,1,.66,0l5.28,2a.93.93,0,0,1,.49.44.64.64,0,0,1,0,.49h0A.69.69,0,0,1,56.06,26.45Zm-6.05-3h0a.59.59,0,0,0,0,.43.75.75,0,0,0,.45.4l5.28,2a.69.69,0,0,0,.91-.32h0a.59.59,0,0,0,0-.43.78.78,0,0,0-.45-.4h0l-5.29-2a.78.78,0,0,0-.6,0A.54.54,0,0,0,50,23.49Zm6.16,1.06a.72.72,0,0,1-.29-.06L51.25,22.7a.67.67,0,0,1-.44-.82h0a.52.52,0,0,1,.29-.31.78.78,0,0,1,.58,0l4.62,1.79a.7.7,0,0,1,.47.78h0l0,.05a.57.57,0,0,1-.3.31A.67.67,0,0,1,56.17,24.55Zm-5.3-2.65a.61.61,0,0,0,.41.74l4.62,1.79a.69.69,0,0,0,.53,0,.57.57,0,0,0,.25-.26v0a.61.61,0,0,0-.41-.74l-4.63-1.79a.72.72,0,0,0-.52,0,.49.49,0,0,0-.26.27Z" style="fill:#fff"/><path d="M26.46,19.16l5.76,11.21c5.26-2.42,8.62-1.73,13.31.31l5.62-11.24L50.52,19l-.11.25.39.27L45.4,30.33h0l0,.13c-4.2-1.81-7.87-2.43-12.89-.32L32.36,30h0L26.82,19.27l.38-.21-.12-.25-.62.35ZM41,16.65a19.42,19.42,0,0,0-2.3.39c-.81-.15-1.57-.25-2.28-.31.72.09,1.48.22,2.29.38C39.49,16.91,40.26,16.76,41,16.65Z" style="fill:#fff;fill-rule:evenodd"/><path d="M45.53,30.69h0c-4.77-2.07-8.13-2.68-13.31-.31h0L26.45,19.16h0l.63-.35h0l.12.25h0l-.38.21L32.34,30h0l.06.13A17.86,17.86,0,0,1,36,29a13.42,13.42,0,0,1,3.21-.22,14.85,14.85,0,0,1,3.06.52,24.33,24.33,0,0,1,3.07,1.11l.06-.13,0,0,5.4-10.79-.4-.26h0l.12-.25h0l.63.42h0Zm-7.14-1.86.7,0a13.81,13.81,0,0,1,3.12.58,28.12,28.12,0,0,1,3.32,1.25l5.62-11.24L50.52,19l-.11.24.39.26h0L45.4,30.33h0l-.06.13h0c-4-1.75-7.77-2.47-12.88-.31h0L32.36,30h0L26.81,19.27h0l.37-.2-.11-.25-.62.35,5.76,11.2a17.5,17.5,0,0,1,3.64-1.25A11.67,11.67,0,0,1,38.39,28.83Zm.3-11.72h0c-.81-.16-1.58-.29-2.29-.38h0c.72.07,1.48.17,2.28.32a20.59,20.59,0,0,1,2.3-.4h0c-.73.11-1.5.26-2.29.46Zm-2.15-.37c.68.09,1.4.21,2.15.36.74-.18,1.46-.33,2.15-.43a19.54,19.54,0,0,0-2.16.37h0C37.94,16.91,37.22,16.81,36.54,16.74Z" style="fill:#fff"/><path d="M26.86,18.35l5.57,11.78a16,16,0,0,1,5.11-1.3A13.29,13.29,0,0,0,32.71,30l-.09-.22-.06,0L27.21,18.45l.63-.35-.1-.25c-.3.15-.59.32-.88.5Zm16.9,11.48c.52.18,1,.39,1.56.62l5.4-11.86c-.28-.19-.55-.38-.84-.56l-.1.26,0,0,.54.36L45.18,30.09,45,30l-.1.24C44.52,30.1,44.14,30,43.76,29.83Z" style="fill:#fff;fill-rule:evenodd"/><path d="M45.32,30.45h0c-.55-.24-1.05-.44-1.55-.62h0l1.12.42L45,30h0l.19.08,5.19-11.4-.54-.37-.06,0h0l.11-.26h0c.28.17.56.36.84.56h0Zm-1.25-.51c.4.15.81.31,1.24.5l5.4-11.84c-.27-.2-.55-.39-.83-.56l-.1.25,0,0c.18.11.37.23.55.36h0L45.18,30.1h0L45,30l-.1.23h0C44.62,30.14,44.34,30,44.07,29.94Zm-11.65.2h0L26.86,18.34h0c.29-.18.58-.34.87-.49h0l.1.25h0c-.21.1-.42.22-.63.34l5.35,11.33.06,0h0l.09.22a13.76,13.76,0,0,1,2.42-.81,13,13,0,0,1,2.4-.33h0a15.87,15.87,0,0,0-5.11,1.31ZM26.86,18.35l5.57,11.78a16.23,16.23,0,0,1,4.87-1.28A13.4,13.4,0,0,0,32.72,30h0l-.09-.22-.06,0h0L27.21,18.45h0l.63-.35-.11-.25C27.44,18,27.15,18.17,26.86,18.35Z" style="fill:#fff"/><path d="M27.47,17.19,32.71,30c4.16-1.83,8.2-1.32,12.18.27l5.25-12.86c-2.55-2.29-6.56-3-11.44-1.48-4.72-1.14-8.49-.8-11.23,1.28Zm.33.09c.21-.15.43-.29.66-.43,3.05-1.79,6.88-1.47,10.18-.67l.07,0,.07,0a15.47,15.47,0,0,1,6.48-.66,8.75,8.75,0,0,1,4.56,2L44.74,29.89a19.27,19.27,0,0,0-5.8-1.33,13.77,13.77,0,0,0-6.08,1.06Z" style="fill:#fff;fill-rule:evenodd"/><path d="M44.89,30.25h0c-4.58-1.82-8.45-1.91-12.17-.27h0L27.46,17.19h0A8.86,8.86,0,0,1,29.72,16a10.25,10.25,0,0,1,2.62-.61,15.77,15.77,0,0,1,3,0,23.47,23.47,0,0,1,3.36.58,18.65,18.65,0,0,1,3.49-.71,12.87,12.87,0,0,1,3.11,0A10,10,0,0,1,48,16a8.36,8.36,0,0,1,2.17,1.41h0Zm-6.7-1.44.68,0a18.6,18.6,0,0,1,6,1.41l5.25-12.85a9.48,9.48,0,0,0-6.51-2.26,17.07,17.07,0,0,0-4.93.79h0c-4.87-1.18-8.54-.77-11.23,1.27L32.72,30A13.94,13.94,0,0,1,35.81,29,13.42,13.42,0,0,1,38.19,28.81Zm6.55,1.09h0a18.56,18.56,0,0,0-5.8-1.33,13.79,13.79,0,0,0-6.08,1.05h0L27.79,17.28h0a7.48,7.48,0,0,1,.66-.43,9.17,9.17,0,0,1,2.41-1,11.76,11.76,0,0,1,2.59-.33,17.13,17.13,0,0,1,2.62.15,24.35,24.35,0,0,1,2.56.49h.07l.07,0a15.26,15.26,0,0,1,6.48-.66,9.79,9.79,0,0,1,2.42.65,8,8,0,0,1,2.14,1.31h0Zm-6.55-1.36.75,0a18.85,18.85,0,0,1,5.8,1.33l5.07-12.42a8.69,8.69,0,0,0-4.55-2,15.28,15.28,0,0,0-6.48.67l-.07,0h0l-.07,0c-4.31-1-7.64-.82-10.18.67-.22.14-.45.28-.66.44l5.06,12.32a14.49,14.49,0,0,1,3-.87A14.15,14.15,0,0,1,38.19,28.54Z" style="fill:#fff"/><path d="M38.68,14.91A3.62,3.62,0,0,1,35.4,12.6c-.43-1.46,1-2.38.46-4.43.91.33.64.87.94,2,.25-1.11-.27-2.36.83-3s-1.82-1.76.58-2.85c-.77.86-.51.86.59,1.82.76.67.27,1.33.26,2.26a2.23,2.23,0,0,1,1-1.53c-.35,1.1.06,1.51.09,2.24.58-.1.19-1.2.77-1.3-.46,1.61,1.48,3.45,1,4.88a3.25,3.25,0,0,1-3.23,2.17Zm.57-1.37c.35-1.15-.39-2,.11-3,.3-.62-.44-1.5-.8-2.08.16,1.46-.92,2.35-.71,3.31.34,1.58,1.24.43,1.4,1.81ZM36.19,10a3.61,3.61,0,0,0-.37,2.29c.36-.09.56.3.6,1.16C36.88,11.49,35.81,12,36.19,10Z" style="fill:#fff;fill-rule:evenodd"/><path d="M39.14,18.16a4.28,4.28,0,0,1,2.2.91l.66-.66.66.67-.66.66a4.3,4.3,0,0,1,.92,2.2h.93v.95h-.93A4.26,4.26,0,0,1,42,25.07l.66.68L42,26.4l-.64-.66a4.32,4.32,0,0,1-2.2.91c0,.32,0,.63,0,1l-.94,0c0-.31,0-.62,0-.93a4.28,4.28,0,0,1-2.2-.91l-.69.65-.64-.68.67-.64a4.18,4.18,0,0,1-.92-2.19l-1,0c0-.31,0-.63,0-.94l.91,0a4.28,4.28,0,0,1,.91-2.2c-.21-.24-.43-.47-.64-.7l.69-.64.62.67a4.28,4.28,0,0,1,2.2-.91v-.93h.94v.93Zm-.47,1a3.23,3.23,0,1,0,3.22,3.23A3.23,3.23,0,0,0,38.67,19.18Z" style="fill:#fff;fill-rule:evenodd"/><path d="M39.19,27.67l-1.08,0,0-.93A4.34,4.34,0,0,1,36,25.83l-.7.66-.74-.79.68-.63a4.29,4.29,0,0,1-.89-2.13l-1,0,0-1.08.92,0a4.29,4.29,0,0,1,.89-2.13L34.6,19l.79-.72L36,19a4.38,4.38,0,0,1,2.12-.88v-.94h1.08v.94a4.38,4.38,0,0,1,2.12.88l.67-.66.76.76-.67.66A4.32,4.32,0,0,1,43,21.87h1V23H43a4.28,4.28,0,0,1-.88,2.12l.66.68L42,26.5l-.65-.67a4.28,4.28,0,0,1-2.13.88Zm-.94-.16.8,0,0-.94h.06a4.2,4.2,0,0,0,2.16-.9l.05,0,.65.66.57-.56-.65-.67,0,0a4.2,4.2,0,0,0,.9-2.16v-.06h.92V22h-.93v-.06a4.2,4.2,0,0,0-.9-2.16l0-.05.66-.65L42,18.51l-.66.65-.05,0a4.1,4.1,0,0,0-2.16-.89h-.06v-.93h-.81v.93h0a4.13,4.13,0,0,0-2.17.89l0,0-.61-.67-.6.55.64.7,0,0a4.23,4.23,0,0,0-.9,2.16V22l-.91,0,0,.81.94,0v.06a4.2,4.2,0,0,0,.9,2.16l0,0-.67.63.56.59.68-.65,0,0a4.23,4.23,0,0,0,2.17.9h.06Zm.42-1.81A3.3,3.3,0,1,1,42,22.41,3.29,3.29,0,0,1,38.67,25.7Zm0-6.45a3.16,3.16,0,1,0,3.16,3.16A3.16,3.16,0,0,0,38.67,19.25Z" style="fill:#fff"/><polygon points="37.49 17.43 39.95 17.43 39.43 28.3 37.9 28.3 37.49 17.43" style="fill:#fff;fill-rule:evenodd"/><path d="M39.49,28.37H37.84l-.42-11H40v.07ZM38,28.24h1.39l.52-10.75H37.56Z" style="fill:#fff"/><path d="M38.76,17.81h0A2.58,2.58,0,0,1,37,15.19c0-1.34,1.23-2.1,1.63-4,0-.06,0-.12,0-.17a19.28,19.28,0,0,1,.14,6.79Zm-.11-.29a18.51,18.51,0,0,0,0-5.61A6.6,6.6,0,0,1,38.15,13a12.56,12.56,0,0,0-.71,1.3,2.09,2.09,0,0,0-.21.93A2.3,2.3,0,0,0,38.65,17.52Z" style="fill:#fff;fill-rule:evenodd"/><path d="M38.61,11a0,0,0,0,0,0,0,1.42,1.42,0,0,0,.08.18c.85,1.31,1.65,2.07,1.69,3.49a3.08,3.08,0,0,1-1.59,3.07l0,0A19.28,19.28,0,0,0,38.61,11Zm.27.84a17.22,17.22,0,0,1,.06,5.59,3,3,0,0,0,1.17-2.72,3.27,3.27,0,0,0-.28-1.28A8.92,8.92,0,0,0,38.88,11.86Z" style="fill:#fff;fill-rule:evenodd"/><path d="M55.24,11.44a22.16,22.16,0,1,1-32.85,0h4.69a18.94,18.94,0,1,0,23.48,0Z" style="fill:#fff;fill-rule:evenodd"/></svg>