<svg xmlns="http://www.w3.org/2000/svg" viewBox="0 0 450.92 71"><title>spkt_logo</title><path d="M64.1,12H65v6.34a2,2,0,0,0,2,2h2.85a2,2,0,0,0,2-2V12h0v6.34a2,2,0,0,0,1.94,2h2.87a1.91,1.91,0,0,0,1.18-.4,2,2,0,0,0,1.19.4h3.32a1.92,1.92,0,0,0,1.53-.78,6.53,6.53,0,0,0,3.65,1A6.11,6.11,0,0,0,92,18.69a5.85,5.85,0,0,0,1.22-2,7.06,7.06,0,0,0,1.14,1.67,7.46,7.46,0,0,0,10,.26,1.94,1.94,0,0,0,1.91,1.61h2.82A2,2,0,0,0,111,19.06l.2.31a1.92,1.92,0,0,0,1.64.91h2.88a1.94,1.94,0,0,0,1.8-1.22,6.53,6.53,0,0,0,4.18,1.4,6.39,6.39,0,0,0,1.91-.27,1.79,1.79,0,0,0,.57.09h2.55a2,2,0,0,0,1.95-2V12a1.91,1.91,0,0,0-.38-1.15,2,2,0,0,0,0-1A6.28,6.28,0,0,0,126,6.46a7,7,0,0,0-4.19-1.26,6.67,6.67,0,0,0-4.25,1.41,2,2,0,0,0-1.8-1.19h-2.82a2,2,0,0,0-1.38.57,2.09,2.09,0,0,0-.42.64l-.19-.3a1.92,1.92,0,0,0-1.64-.91h-2.9a2,2,0,0,0-.48.07,1.49,1.49,0,0,0-.43-.06h-1.53a1.91,1.91,0,0,0-.92.24l-.09-.16-1.66-2.9a1.93,1.93,0,0,0-1.68-1,1.68,1.68,0,0,0-.54.08l-2.24.64a1.94,1.94,0,0,0-1.12,2.89l.45.73c-.22.12-.42.26-.63.4a1.93,1.93,0,0,0-1.65-.94H92.13l-.3,0H89.06a2,2,0,0,0-1.58.8,1.94,1.94,0,0,0-1.57-.8H83a1.94,1.94,0,0,0-1.68,1,6.3,6.3,0,0,0-3.55-1H73.69a1.9,1.9,0,0,0-.53.09,2,2,0,0,0-.54-.09H64.1a2,2,0,0,0-1.95,2V10A2,2,0,0,0,64.1,12Zm35.25-.16a.58.58,0,0,1,.22,0h.19a2.35,2.35,0,0,1,.16,1,3.43,3.43,0,0,1-.12,1,.86.86,0,0,1-.23,0h-.18a2.33,2.33,0,0,1-.17-1.06A3,3,0,0,1,99.35,11.83Z" style="fill:#fff"/><path d="M129.64,18.33a2,2,0,0,0,2,2h4.46A7,7,0,0,0,140,19.2a1.87,1.87,0,0,0,.16.28,2,2,0,0,0,1.57.8h1.78a3.48,3.48,0,0,0,.95,2.29,3.36,3.36,0,0,0,2.45,1,3.39,3.39,0,0,0,2.5-1,3.28,3.28,0,0,0,.89-2.25H152a2,2,0,0,0,.42-.05,1.86,1.86,0,0,0,.42.05h2.87a2,2,0,0,0,1.94-2v-11a1.94,1.94,0,0,0-1.94-1.95h-2.87a2,2,0,0,0-2,2V8.2l-.43-1.41a2,2,0,0,0-1.86-1.37h-3.54a2,2,0,0,0-1.86,1.37l-.81,2.62a6.84,6.84,0,0,0-1.24-1.87A6.72,6.72,0,0,0,136,5.42h-4.45a2,2,0,0,0-2,2v2.78a2,2,0,0,0-.58,1.38V14.1a2,2,0,0,0,.58,1.39Z" style="fill:#fff"/><path d="M160.69,20.28h2.86a2,2,0,0,0,1.55-.77,2,2,0,0,0,1.55.77h2.87a2,2,0,0,0,1.8-1.22,5.87,5.87,0,0,0,1.08.7,3,3,0,0,0,0,.52,3.42,3.42,0,0,0,.94,2.29,3.36,3.36,0,0,0,2.46,1,3.43,3.43,0,0,0,2.5-1,3.32,3.32,0,0,0,.88-2.32c0-.16,0-.31,0-.46a6.38,6.38,0,0,0,1.8-1.36c.13-.13.24-.28.36-.42.12.15.25.31.38.45a6.63,6.63,0,0,0,5.06,2.07,6.74,6.74,0,0,0,4.2-1.37,7,7,0,0,0,2.33-3.37,1.93,1.93,0,0,0-1.34-2.49L190,12.74l1.85-.5A2,2,0,0,0,193.2,9.8a6.28,6.28,0,0,0-2.3-3.32,6.75,6.75,0,0,0-4.14-1.28,6.66,6.66,0,0,0-5.08,2.07,5.58,5.58,0,0,0-.39.46,5.2,5.2,0,0,0-.38-.44,6.74,6.74,0,0,0-5.16-2.09,6.94,6.94,0,0,0-4.43,1.42,2,2,0,0,0-1.8-1.2h-2.87a2,2,0,0,0-1.55.77,1.93,1.93,0,0,0-1.55-.77h-2.86a2,2,0,0,0-1.95,2v11A2,2,0,0,0,160.69,20.28Zm25.93-8.48h0a.92.92,0,0,1,.16.22,1.88,1.88,0,0,0,.7.75,1.92,1.92,0,0,0-.73.94.91.91,0,0,1-.08.17h-.09a3.29,3.29,0,0,1-.13-1.07A3.16,3.16,0,0,1,186.62,11.8Zm-11.09,0a.63.63,0,0,1,.22,0h.19a2.26,2.26,0,0,1,.17,1,3.15,3.15,0,0,1-.13,1,.75.75,0,0,1-.23,0h-.18a2.41,2.41,0,0,1-.16-1.06A3.8,3.8,0,0,1,175.53,11.83Z" style="fill:#fff"/><path d="M62.21,37.7c.43,1.86,1.92,5,7.05,5,3,0,4.72-1.07,5.63-2.35l.28.33a7.68,7.68,0,0,0,10.38,0,7.77,7.77,0,0,0,2-5.58V32.68a4.58,4.58,0,0,0,2.36-4.38v-.72a1.94,1.94,0,0,0-2-1.94h-2a1.87,1.87,0,0,0-.34,0H82.28A1.94,1.94,0,0,0,80.43,27a2,2,0,0,0-1.86-1.36h-3.4a1.93,1.93,0,0,0-1.68,1A7.46,7.46,0,0,0,69,25.36a7.12,7.12,0,0,0-4.65,1.44,5.45,5.45,0,0,0-2,4.4A5.76,5.76,0,0,0,64,35.28l-.38.1A2,2,0,0,0,62.21,37.7Z" style="fill:#fff"/><path d="M137.33,42.44h3.38a2,2,0,0,0,1.95-1.95V27.57a2,2,0,0,0-1.95-1.95h-3.63a2,2,0,0,0-1.77,1.12l-.69,1.49-.72-1.5a1.94,1.94,0,0,0-1.75-1.11h-3.81a1.94,1.94,0,0,0-1.94,1.95v3.29L125.19,27a1.93,1.93,0,0,0-1.85-1.37h-4.18A2,2,0,0,0,117.3,27l-1.2,3.88v-3.3a1.94,1.94,0,0,0-1.94-1.95h-3.38A1.94,1.94,0,0,0,109,26.9a1.94,1.94,0,0,0-1.83-1.28h-3.38A1.92,1.92,0,0,0,102,26.8a7,7,0,0,0-4.09-1.18H93.16a2,2,0,0,0-2,1.95V40.49a2,2,0,0,0,2,1.95h3.38a2,2,0,0,0,1.95-1.95V38.6a6.85,6.85,0,0,0,3.31-1.05v2.94a1.94,1.94,0,0,0,1.94,1.95h3.38A1.94,1.94,0,0,0,109,41.16a1.94,1.94,0,0,0,1.83,1.28h3.38a2,2,0,0,0,.49-.07,2.16,2.16,0,0,0,.51.07h2.46c0,.11,0,.22,0,.34a3.7,3.7,0,0,0,1,2.47,3.91,3.91,0,0,0,5.34,0,3.58,3.58,0,0,0,1-2.49,2.44,2.44,0,0,0,0-.27h2.44a2.16,2.16,0,0,0,.51-.07,1.93,1.93,0,0,0,.49.07h3.33a1.94,1.94,0,0,0,1.94-1.95V39.37h1.78v1.12A1.94,1.94,0,0,0,137.33,42.44Z" style="fill:#fff"/><path d="M157.56,25.62h-4a2,2,0,0,0-1.6.83l-.26.37a2,2,0,0,0-1.8-1.2h-3.38a2,2,0,0,0-2,1.95V40.49a2,2,0,0,0,2,1.95h3.38A2,2,0,0,0,151.81,41l.2.39a2,2,0,0,0,1.72,1h3.92a1.95,1.95,0,0,0,1.71-2.87L155.85,33l1.71-2.24,2.82,5.43v4.29a1.94,1.94,0,0,0,1.94,1.95h3.36a2,2,0,0,0,1.95-1.95V36.2l4-7.74a1.95,1.95,0,0,0-1.73-2.84h-.82c0-.11,0-.22,0-.33l-.5-2.44a1.94,1.94,0,0,0-1.32-1.46,2,2,0,0,0-1.87.39.66.66,0,0,1-.19,0,3.3,3.3,0,0,1-.81-.17,6.91,6.91,0,0,0-1.89-.31A3.38,3.38,0,0,0,159.14,23a2,2,0,0,0-.18,1.3l.28,1.32h-1.16a1.26,1.26,0,0,0-.27,0A1.09,1.09,0,0,0,157.56,25.62Z" style="fill:#fff"/><path d="M193.11,25.62a1.94,1.94,0,0,0-1.83,1.28,1.94,1.94,0,0,0-1.83-1.28h-3.38a2,2,0,0,0-.64.12,1.9,1.9,0,0,0-.63-.12H174.75a1.94,1.94,0,0,0-1.94,1.95v3.15a1.94,1.94,0,0,0,1.94,2h1.4v7.82a1.94,1.94,0,0,0,1.94,1.95h3.37a1.94,1.94,0,0,0,1.94-1.95V32.67h.73v7.82a1.94,1.94,0,0,0,1.94,1.95h3.38a1.94,1.94,0,0,0,1.83-1.28,1.94,1.94,0,0,0,1.83,1.28h3.38A1.93,1.93,0,0,0,198.36,41a7,7,0,0,0,4.87,1.72,7.17,7.17,0,0,0,4.4-1.34,2.69,2.69,0,0,0,.16.29,2,2,0,0,0,1.57.79h2.46c0,.11,0,.22,0,.34a3.75,3.75,0,0,0,1,2.47,3.92,3.92,0,0,0,5.35,0,3.58,3.58,0,0,0,1-2.49c0-.09,0-.18,0-.27h2.44a1.94,1.94,0,0,0,1.56-.79,2,2,0,0,0,.3-1.74L221,32.28a1.93,1.93,0,0,0,1.16.39h1.39v7.82a2,2,0,0,0,1.95,1.95h3.36a2,2,0,0,0,1.95-1.95V32.67h1.39a2,2,0,0,0,1.95-2V27.57a2,2,0,0,0-1.95-1.95h-10a2,2,0,0,0-1.95,1.95v2.16l-.75-2.43.73-.86a2,2,0,0,0,.44-1.48,1.92,1.92,0,0,0-.76-1.33l-3.27-2.46a1.94,1.94,0,0,0-1.17-.39,1.91,1.91,0,0,0-1.16.39L211,23.62a1.95,1.95,0,0,0-.32,2.82l.72.85-1.06,3.39V27.57a1.94,1.94,0,0,0-1.94-1.95h-3.27A2,2,0,0,0,203.29,27a1.94,1.94,0,0,0-1.85-1.36H198a2,2,0,0,0-.78.16,2,2,0,0,0-.77-.16Z" style="fill:#fff"/><path d="M237.38,32.67h1.39v7.82a2,2,0,0,0,1.95,1.95h3.36A2,2,0,0,0,246,40.49V32.67h.72v7.82a2,2,0,0,0,1.95,1.95h3.38a1.93,1.93,0,0,0,1.82-1.28,2,2,0,0,0,1.83,1.28h3.38a1.82,1.82,0,0,1,1,0h3.51A2,2,0,0,0,265.5,41l.11-.42h1.13l.12.44a2,2,0,0,0,1.87,1.43h3.57a2.08,2.08,0,0,0,.5-.07,2,2,0,0,0,.5.07h3.32a2,2,0,0,0,1.95-1.95v-.08l.71,1.12a1.94,1.94,0,0,0,1.64.91h3.4a1.87,1.87,0,0,0,.82-.19,1.91,1.91,0,0,0,.83.19h3.37a1.94,1.94,0,0,0,1.83-1.28A2,2,0,0,0,293,42.44h3.38a2,2,0,0,0,1.95-1.95V27.57a2,2,0,0,0-1.95-1.95H293a2,2,0,0,0-1.83,1.28,1.94,1.94,0,0,0-1.83-1.28H286a1.91,1.91,0,0,0-.83.19,1.87,1.87,0,0,0-.82-.19H281a2,2,0,0,0-1.38.57,1.94,1.94,0,0,0-.57,1.38v.06l-.69-1.1a2,2,0,0,0-1.65-.91H273.3a2,2,0,0,0-1.95,1.95v3.29L270.15,27a2,2,0,0,0-.56-.87,1.93,1.93,0,0,0-.2-.52l-2-3.42a1.94,1.94,0,0,0-1.69-1,1.88,1.88,0,0,0-.53.07l-2.64.76a1.92,1.92,0,0,0-1.28,1.17,2,2,0,0,0,.16,1.73l1,1.61a1.75,1.75,0,0,0-.2.44l-1.2,3.88v-3.3a2,2,0,0,0-1.95-1.95h-3.38a2,2,0,0,0-1.83,1.28,1.93,1.93,0,0,0-1.82-1.28H248.7a1.77,1.77,0,0,1-1.28,0h-10a2,2,0,0,0-1.95,1.95v3.15A2,2,0,0,0,237.38,32.67Z" style="fill:#fff"/><path d="M302.22,42.44h3.38a1.94,1.94,0,0,0,1.94-1.95V38.6a6.82,6.82,0,0,0,3.31-1.05v2.94a2,2,0,0,0,1.95,1.95h3.38A2,2,0,0,0,318,41.16a1.93,1.93,0,0,0,1.82,1.28h3.38a2,2,0,0,0,1.93-1.71,8.42,8.42,0,0,0,11.27-.4,8.85,8.85,0,0,0,2.21-6.3,8.94,8.94,0,0,0-2.22-6.32,7.45,7.45,0,0,0-1.26-1.07l.18-.22a2,2,0,0,0,.46-1.23,2,2,0,0,0,1-.79l1.64-2.66a2,2,0,0,0-1.12-2.9l-2.64-.75a2,2,0,0,0-.54-.08,1.93,1.93,0,0,0-1.68,1l-1.1,1.91a2,2,0,0,0-.73-.14,1.91,1.91,0,0,0-1.16.39l-3.29,2.46a2,2,0,0,0-.77,1.33,1.94,1.94,0,0,0,.45,1.48l.18.22a8.81,8.81,0,0,0-.84.67,1.93,1.93,0,0,0-1.92-1.69h-3.38A1.93,1.93,0,0,0,318,26.9a2,2,0,0,0-1.83-1.28H312.8A1.94,1.94,0,0,0,311,26.8a7,7,0,0,0-4.08-1.18h-4.71a2,2,0,0,0-2,1.95V40.49A2,2,0,0,0,302.22,42.44Zm28.34-10c.38,0,.77,0,.77,1.6s-.37,1.56-.77,1.56-.75,0-.75-1.6S330.18,32.45,330.56,32.45Z" style="fill:#fff"/><path d="M342.13,42.44h3.38a1.93,1.93,0,0,0,1.82-1.28,2,2,0,0,0,1.83,1.28h3.38a1.94,1.94,0,0,0,1.92-1.71,8.43,8.43,0,0,0,11.28-.4A8.85,8.85,0,0,0,368,34a8.94,8.94,0,0,0-2.22-6.32,7.39,7.39,0,0,0-1.25-1.06l.19-.21a2,2,0,0,0,.45-1.11,1.93,1.93,0,0,0,1.55-1,2,2,0,0,0,0-1.95l-2-3.41A1.94,1.94,0,0,0,363,18a1.68,1.68,0,0,0-.54.08l-2.64.75A1.93,1.93,0,0,0,358.58,20a1.85,1.85,0,0,0,0,1.29l-3.08,2.3a1.95,1.95,0,0,0-.32,2.82l.16.2a8.81,8.81,0,0,0-.84.67,1.93,1.93,0,0,0-1.92-1.69h-3.38a2,2,0,0,0-1.83,1.28,1.93,1.93,0,0,0-1.82-1.28h-3.38a2,2,0,0,0-1.95,1.95V40.49A2,2,0,0,0,342.13,42.44Zm17.76-10c.38,0,.77,0,.77,1.6s-.37,1.56-.77,1.56-.75,0-.75-1.6S359.51,32.45,359.89,32.45Z" style="fill:#fff"/><path d="M377.05,42.7a7.58,7.58,0,0,0,4.74-1.56l.11-.1a1.92,1.92,0,0,0,1.85,1.4h3.38a1.95,1.95,0,0,1,3.66,0h3.38a1.82,1.82,0,0,1,1.62,0h3.38a2,2,0,0,0,1.95-1.95V27.57a2.08,2.08,0,0,0-.11-.66l1.22-2A1.94,1.94,0,0,0,401.11,22l-2.64-.76a2,2,0,0,0-.53-.07,1.94,1.94,0,0,0-1.69,1l-2,3.42a0,0,0,0,0,0,0h-3.49a1.95,1.95,0,0,1-3.66,0h-3.38a1.93,1.93,0,0,0-1.83,1.32l-.16-.14a7.61,7.61,0,0,0-4.67-1.44,7.53,7.53,0,0,0-5.74,2.33,8.86,8.86,0,0,0-2.23,6.3,9,9,0,0,0,2.22,6.37A7.49,7.49,0,0,0,377.05,42.7Zm2.65-8.84,2.11-.57V34.5l-2-.54a1.55,1.55,0,0,0-.31-.06Zm-3-1.38a.61.61,0,0,1,.23,0c.16,0,.32,0,.55.44a1.94,1.94,0,0,0,1.52,1,2,2,0,0,0-1.53,1.25c-.17.45-.28.45-.54.45a.8.8,0,0,1-.2,0h0s-.29-.31-.29-1.6A2.81,2.81,0,0,1,376.69,32.48Z" style="fill:#fff"/><path d="M447.1,25.62h-3.38a1.95,1.95,0,0,1-3.66,0h-3.38a1.86,1.86,0,0,1-1.64,0h-3.33a1.95,1.95,0,0,0-1.94,1.95v.06l-.69-1.1a2,2,0,0,0-1.65-.91H424a1.91,1.91,0,0,1-1.62,0H419a2,2,0,0,0-.82.18,2,2,0,0,0-.81-.18h-3.64A2,2,0,0,0,412,26.74l-.69,1.49-.72-1.5a2,2,0,0,0-1.76-1.11H405a2,2,0,0,0-1.95,1.95V40.49A2,2,0,0,0,405,42.44h3.32a2,2,0,0,0,1.95-1.95V39.37h1.78v1.12A1.94,1.94,0,0,0,414,42.44h3.38a1.82,1.82,0,0,0,.81-.19,1.9,1.9,0,0,0,.82.19h3.38a1.82,1.82,0,0,1,1.62,0h3.33a1.94,1.94,0,0,0,1.94-1.95v-.08l.72,1.12a1.92,1.92,0,0,0,1.64.91H435a1.86,1.86,0,0,1,1.64,0h3.38a1.95,1.95,0,0,1,3.66,0h3.38A1.94,1.94,0,0,0,449,40.49V27.57A1.94,1.94,0,0,0,447.1,25.62Z" style="fill:#fff"/><path d="M106.84,61.66l-1.93-.52,1.85-.5a1.89,1.89,0,0,0,1.19-.93,1.94,1.94,0,0,0,.17-1.51,6.28,6.28,0,0,0-2.3-3.32,7.42,7.42,0,0,0-8.5.14,1.94,1.94,0,0,0-1.79-1.19H92.44A1.94,1.94,0,0,0,90.68,55l-.33.69L90,54.93a1.94,1.94,0,0,0-1.75-1.1H85a1.93,1.93,0,0,0-1.67,1,6.76,6.76,0,0,0-4-1.18A6.85,6.85,0,0,0,75,55a1.94,1.94,0,0,0-1.79-1.19H70.36a2,2,0,0,0-1.55.77,2,2,0,0,0-1.55-.77H64.39a1.94,1.94,0,0,0-1.94,1.94v11a1.94,1.94,0,0,0,1.94,1.94h2.87a2,2,0,0,0,1.55-.77,2,2,0,0,0,1.55.77h2.87A1.94,1.94,0,0,0,75,67.49a6.8,6.8,0,0,0,4.33,1.41,6.72,6.72,0,0,0,4-1.24,1.93,1.93,0,0,0,1.7,1h2.82a1.94,1.94,0,0,0,2-1.94v-.66h.91v.66a2,2,0,0,0,2,1.94h2.87a1.94,1.94,0,0,0,1.79-1.19,6.8,6.8,0,0,0,4.33,1.41,6.67,6.67,0,0,0,4.2-1.38,7,7,0,0,0,2.33-3.36,1.95,1.95,0,0,0-1.34-2.5Zm-27.42.45a.83.83,0,0,1-.08.18h-.09a3.43,3.43,0,0,1-.13-1.08,3.13,3.13,0,0,1,.12-1h.05a.53.53,0,0,1,.16.21,1.9,1.9,0,0,0,.7.76A2,2,0,0,0,79.42,62.11ZM83.09,61v.26l-.48-.13Zm18.63,1.1c0,.11-.08.17-.08.18h-.09a3.43,3.43,0,0,1-.13-1.08,3.13,3.13,0,0,1,.12-1h0a.69.69,0,0,1,.16.21,1.9,1.9,0,0,0,.7.76A2,2,0,0,0,101.72,62.11Z" style="fill:#fff"/><path d="M196.72,53.83h-3A1.92,1.92,0,0,0,192,55l-.1.2-.08-.19A2,2,0,0,0,190,53.81l-3.29,0a1.81,1.81,0,0,0-.23,0,1.53,1.53,0,0,0-.3,0h-8.53a2,2,0,0,0-.54.08,1.91,1.91,0,0,0-.54-.08H173.7a1.93,1.93,0,0,0-1.52.74,6.78,6.78,0,0,0-3.74-1,6.35,6.35,0,0,0-4.14,1.29,5.31,5.31,0,0,0-.59.58l-.05-.07a6,6,0,0,0-4.34-1.58h-4.1a1.85,1.85,0,0,0-.67.12,1.8,1.8,0,0,0-.66-.12h-7.46a2.23,2.23,0,0,1-.84,0h-3.05a2,2,0,0,0-1.9,1.49l0,.21-.05-.22a1.94,1.94,0,0,0-1.89-1.48h-3.22a1.54,1.54,0,0,0-.43.05,1.42,1.42,0,0,0-.42-.05h-2.87A2,2,0,0,0,131,54a2,2,0,0,0-.7-.13H127.5a2,2,0,0,0-1.8,1.2l-.18-.3a2,2,0,0,0-1.65-.9H121a1.84,1.84,0,0,0-.66.12,1.85,1.85,0,0,0-.67-.12h-2.77a1.91,1.91,0,0,0-1.57.8,2,2,0,0,0-1.58-.8h-2.88a2,2,0,0,0-2,1.94v6.39a6.87,6.87,0,0,0,1.74,4.94,6.15,6.15,0,0,0,4.61,1.8,6.31,6.31,0,0,0,4-1.27A2,2,0,0,0,121,68.68h2.82a2,2,0,0,0,1.81-1.22l.2.32a1.93,1.93,0,0,0,1.64.9h2.88a2,2,0,0,0,.7-.13,2,2,0,0,0,.69.13h2.87a1.94,1.94,0,0,0,1.95-1.94v-.08l.17.61a2,2,0,0,0,1.87,1.41h3.89a1.94,1.94,0,0,0,1.87-1.41l.16-.56v0a1.94,1.94,0,0,0,1.94,1.94H154a1.8,1.8,0,0,0,.62-.11,1.9,1.9,0,0,0,.63.11h2.87a2,2,0,0,0,1.18-.4,1.89,1.89,0,0,0,1.18.4h3.32a2,2,0,0,0,1.35-.54,7.46,7.46,0,0,0,3.51.76,7,7,0,0,0,3.62-.88,1.94,1.94,0,0,0,1.45.66h2.86a1.94,1.94,0,0,0,1.95-1.94V60.4h0v6.34a1.94,1.94,0,0,0,1.95,1.94h2.85a2,2,0,0,0,1.95-1.94V60.4h.89a1.91,1.91,0,0,0,.68-.13l1.5,2.9v3.57a1.94,1.94,0,0,0,2,1.94h2.85a2,2,0,0,0,1.95-1.94V63.17l3.35-6.51a1.94,1.94,0,0,0-1.73-2.83Z" style="fill:#fff"/><path d="M219.54,53.83h-7.32a2,2,0,0,0-1.8,1.2A7,7,0,0,0,206,53.61a6.81,6.81,0,0,0-5.18,2.08,7.85,7.85,0,0,0-1.95,5.56,7.81,7.81,0,0,0,2,5.56A6.74,6.74,0,0,0,206,68.9a7,7,0,0,0,4.43-1.43,2,2,0,0,0,1.8,1.21h2.87A1.94,1.94,0,0,0,217,66.74V64.86h1.47a2,2,0,0,0,1.95-2V60.17a2,2,0,0,0,1-1.72V55.77A1.94,1.94,0,0,0,219.54,53.83Zm-13.32,8.45a1.45,1.45,0,0,1-.23,0h-.18a2.35,2.35,0,0,1-.16-1,4,4,0,0,1,.12-1,.76.76,0,0,1,.22,0h.19a2.22,2.22,0,0,1,.17,1.05A3.23,3.23,0,0,1,206.22,62.28Z" style="fill:#fff"/><path d="M324.94,54.76a1.93,1.93,0,0,0-1.66-.93h-3A2,2,0,0,0,318.51,55l-.1.2-.08-.19a1.94,1.94,0,0,0-1.78-1.16l-3.28,0a1.89,1.89,0,0,0-1.5.74,7.14,7.14,0,0,0-3.69-1,6.6,6.6,0,0,0-5,2.08,4.74,4.74,0,0,0-.4.49c-.13-.17-.27-.33-.41-.49a7.47,7.47,0,0,0-10.34,0A7.81,7.81,0,0,0,290,61.25c0,.3,0,.58,0,.86h-.68V55.77a1.94,1.94,0,0,0-1.95-1.94h-2.87a2,2,0,0,0-1.8,1.2,6.94,6.94,0,0,0-4.43-1.42A7,7,0,0,0,273.84,55a1.94,1.94,0,0,0-1.8-1.2h-2.81a1.92,1.92,0,0,0-1.38.57,1.74,1.74,0,0,0-.42.63l-.19-.3a2,2,0,0,0-1.65-.9h-2.9A1.91,1.91,0,0,0,262,54a2,2,0,0,0-.69-.13h-2.87a2,2,0,0,0-1.55.77,2,2,0,0,0-1.55-.77h-2.87a1.93,1.93,0,0,0-1.67,1,6.76,6.76,0,0,0-4-1.18,6.85,6.85,0,0,0-4.09,1.21,1.94,1.94,0,0,0-1.69-1H233.6a1.86,1.86,0,0,1-1.08,0H224a1.94,1.94,0,0,0-1.95,1.94v2.68A2,2,0,0,0,224,60.4h.89v6.34a1.94,1.94,0,0,0,1.94,1.94h2.85a1.94,1.94,0,0,0,1.95-1.94V60.4h0v6.34a1.94,1.94,0,0,0,1.95,1.94h7.53a1.94,1.94,0,0,0,1.66-.94,6.91,6.91,0,0,0,4,1.16,6.72,6.72,0,0,0,4-1.24,1.93,1.93,0,0,0,1.7,1h2.87a2,2,0,0,0,1.55-.77,2,2,0,0,0,1.55.77h2.87a2,2,0,0,0,.69-.13,1.91,1.91,0,0,0,.68.13h2.82a2,2,0,0,0,1.81-1.22l.2.32a2,2,0,0,0,1.64.9H272a2,2,0,0,0,1.81-1.22,7.57,7.57,0,0,0,8.87,0,2,2,0,0,0,1.8,1.21h7.05a2,2,0,0,0,1.61-.85,7.12,7.12,0,0,0,3.94,1.07,6.78,6.78,0,0,0,5.17-2.1c.15-.16.28-.32.41-.48a6,6,0,0,0,.47.55,6.46,6.46,0,0,0,4.84,2,6.39,6.39,0,0,0,1.91-.27,2.12,2.12,0,0,0,.57.08H313A1.94,1.94,0,0,0,315,67.09a2,2,0,0,0,1.91,1.59h2.85a1.94,1.94,0,0,0,2-1.94V63.17L325,56.66A1.92,1.92,0,0,0,324.94,54.76Zm-78.07,7.35a.83.83,0,0,1-.08.18h-.09a3.43,3.43,0,0,1-.13-1.08,3.13,3.13,0,0,1,.12-1h.05a.53.53,0,0,1,.16.21,1.9,1.9,0,0,0,.7.76A2,2,0,0,0,246.87,62.11Zm3.67-1.1v.26l-.48-.13Zm28,1.27a1.45,1.45,0,0,1-.23,0h-.18a2.35,2.35,0,0,1-.16-1,3.15,3.15,0,0,1,.13-1,.62.62,0,0,1,.21,0h.2a2.48,2.48,0,0,1,.16,1.05A3.23,3.23,0,0,1,278.52,62.28Zm18.83,0a1.84,1.84,0,0,1-.23,0h-.18a2.26,2.26,0,0,1-.17-1,3.15,3.15,0,0,1,.13-1,.71.71,0,0,1,.22,0h.19a2.3,2.3,0,0,1,.16,1.05A4.06,4.06,0,0,1,297.35,62.28Z" style="fill:#fff"/><path d="M353.54,53.83h-4.45a2,2,0,0,0-.7.13,2,2,0,0,0-.69-.13h-2.82a1.92,1.92,0,0,0-1.38.57,1.88,1.88,0,0,0-.42.63l-.19-.3a2,2,0,0,0-1.65-.9h-2.89a1.94,1.94,0,0,0-2,1.94v.84L336,55.2a1.93,1.93,0,0,0-1.86-1.37h-3.53a1.93,1.93,0,0,0-1.86,1.37l-3.4,11a1.91,1.91,0,0,0,.29,1.73,2,2,0,0,0,1.57.79h3A2,2,0,0,0,332,67.24l0-.14h.5l0,.16a2,2,0,0,0,1.88,1.42h3a1.86,1.86,0,0,0,.42-.05,2,2,0,0,0,.43.05h2.82a1.94,1.94,0,0,0,1.8-1.22l.2.32a2,2,0,0,0,1.64.9h2.89a2,2,0,0,0,.69-.13,2,2,0,0,0,.7.13h4.46a6.82,6.82,0,0,0,5.14-2.08,7.4,7.4,0,0,0,1.95-5.3,7.56,7.56,0,0,0-2-5.36A6.76,6.76,0,0,0,353.54,53.83Z" style="fill:#fff"/><path d="M446.45,53.83h-2.82a1.94,1.94,0,0,0-1.38.57,2,2,0,0,0-.42.63l-.19-.3a1.94,1.94,0,0,0-1.64-.9h-2.9a1.94,1.94,0,0,0-1.8,1.2,7.64,7.64,0,0,0-8.87,0,1.94,1.94,0,0,0-1.8-1.2h-2.86a1.91,1.91,0,0,0-.54.08,2,2,0,0,0-.54-.08h-8.52a1.92,1.92,0,0,0-1.26.47,2,2,0,0,0-1.25-.47h-3.54a2,2,0,0,0-1.86,1.37l-.53,1.72a6.24,6.24,0,0,0-1.75-2,7.4,7.4,0,0,0-8.56.19,2,2,0,0,0-1.81-1.24h-2.78a1.94,1.94,0,0,1-3.14,0H382.8a2,2,0,0,0-1.87,1.43,6.87,6.87,0,0,0-4.39-1.43h-4.45a1.9,1.9,0,0,1-1.33,0h-7.45a1.94,1.94,0,0,0-1.95,1.94v11a1.94,1.94,0,0,0,1.95,1.94h7.53a1.9,1.9,0,0,0,.63-.11,1.84,1.84,0,0,0,.62.11h4.47a6.78,6.78,0,0,0,5.13-2.08c.1-.1.19-.21.28-.31a6,6,0,0,0,.62.81,6.82,6.82,0,0,0,9.23,0,5.48,5.48,0,0,0,.55-.72l.38.45a6.66,6.66,0,0,0,5.06,2.07,6.77,6.77,0,0,0,3.45-.9,1.93,1.93,0,0,0,1.46.68h3a2,2,0,0,0,1.88-1.44l0-.14h.5l0,.16A2,2,0,0,0,410,68.68h3a1.88,1.88,0,0,1,1.94,0h2.85a1.94,1.94,0,0,0,1.95-1.94V60.4h0v6.34a1.94,1.94,0,0,0,1.95,1.94h2.86a1.94,1.94,0,0,0,1.8-1.21,7.59,7.59,0,0,0,8.87,0,1.94,1.94,0,0,0,1.8,1.21h2.82a1.93,1.93,0,0,0,1.8-1.22l.2.32a2,2,0,0,0,1.65.9h2.88a1.94,1.94,0,0,0,1.94-1.94v-11A1.94,1.94,0,0,0,446.45,53.83Zm-43.91,6.91-.22.74-1.25-.34Zm-4.66,1.37c0,.11-.08.17-.08.18h-.09a3.43,3.43,0,0,1-.13-1.08,3.13,3.13,0,0,1,.12-1h.05a.61.61,0,0,1,.15.21,2,2,0,0,0,.71.76A1.94,1.94,0,0,0,397.88,62.11Zm33.22.17a1.84,1.84,0,0,1-.23,0h-.18a2.26,2.26,0,0,1-.17-1,3.15,3.15,0,0,1,.13-1,.71.71,0,0,1,.22,0h.19a2.3,2.3,0,0,1,.16,1.05A3.52,3.52,0,0,1,431.1,62.28Z" style="fill:#fff"/><path d="M69.78,10v8.29H66.93V10H64.1V7.37h8.52V10Z" style="fill:blue"/><path d="M77.25,14.77h-.69v3.56H73.69v-11H77.8a4.06,4.06,0,0,1,3,1,3.56,3.56,0,0,1,1,2.72,3.09,3.09,0,0,1-1.72,3.06l2.15,4.15H78.93Zm.61-2.3c.71,0,1.07-.41,1.07-1.23S78.57,10,77.86,10h-1.3v2.47Z" style="fill:blue"/><path d="M91.83,13.76a5,5,0,0,1-1.19,3.58,4.86,4.86,0,0,1-6.42,0A5,5,0,0,1,83,13.76V7.37h2.88v6.31c0,1.44.52,2.16,1.57,2.16s1.58-.72,1.58-2.16V7.37h2.77V8.84A.87.87,0,0,0,92.3,8V7.38h1.54V8a2.23,2.23,0,0,1-2,2.54Z" style="fill:blue"/><path d="M104.75,12.85a5.87,5.87,0,0,1-1.43,4.21,5.49,5.49,0,0,1-7.5,0,6,6,0,0,1-1.44-4.23,5.92,5.92,0,0,1,1.43-4.23,5.52,5.52,0,0,1,7.5,0,1.12,1.12,0,0,1,.17.2.87.87,0,0,0,.44-.86V7.38h1.53V8a2.21,2.21,0,0,1-1.12,2.27A7.29,7.29,0,0,1,104.75,12.85Zm-2.88,0c0-2-.77-3-2.3-3s-2.29,1-2.29,3,.77,3,2.29,3S101.87,14.85,101.87,12.86Zm-.64-6.39H98.72L97.33,4.22l2.24-.64Z" style="fill:blue"/><path d="M109.21,12.63h0l0,.86v4.84h-2.82v-11h2.9l3.6,5.71h0l0-5.71h2.82v11h-2.88Z" style="fill:blue"/><path d="M124.17,18.33v-.66h0a3.27,3.27,0,0,1-2.43.85,4.58,4.58,0,0,1-3.44-1.41,5.94,5.94,0,0,1-1.47-4.28A6,6,0,0,1,118.2,8.6a4.6,4.6,0,0,1,3.56-1.45,5.07,5.07,0,0,1,3,.89,4.31,4.31,0,0,1,1.6,2.32l-2.79.75a1.85,1.85,0,0,0-1.8-1.25,1.87,1.87,0,0,0-1.55.75,3.49,3.49,0,0,0-.6,2.14A3.63,3.63,0,0,0,120.3,15a2.12,2.12,0,0,0,1.77.8,2.16,2.16,0,0,0,2-.86v-.57h-2.19V12h4.84v6.33Z" style="fill:blue"/><path d="M136,7.37a4.84,4.84,0,0,1,3.72,1.5,5.68,5.68,0,0,1,1.41,4,5.54,5.54,0,0,1-1.41,4,4.85,4.85,0,0,1-3.71,1.47h-4.46V14.1H131V11.53h.58V7.37Zm-.24,8.28a2.49,2.49,0,0,0,1.73-.59,2.79,2.79,0,0,0,.76-2.15,3,3,0,0,0-.75-2.24,2.29,2.29,0,0,0-1.69-.63h-1.41v1.49h1.79V14.1h-1.79v1.55Z" style="fill:blue"/><path d="M145.09,16.75l-.42,1.58h-3l3.4-11h3.54l3.4,11h-3l-.43-1.58Zm.7,4.45a1.47,1.47,0,0,1-.37-1,1.34,1.34,0,0,1,.37-1,1.49,1.49,0,0,1,1.08-.39,1.45,1.45,0,0,1,1.07.39,1.34,1.34,0,0,1,.38,1,1.38,1.38,0,0,1-.37,1,1.46,1.46,0,0,1-1.08.39A1.49,1.49,0,0,1,145.79,21.2Zm1.46-9.26c-.28-1-.41-1.55-.39-1.54h-.06s-.11.49-.4,1.52l-.61,2.21h2.07Z" style="fill:blue"/><path d="M152.87,7.37h2.87v11h-2.87Z" style="fill:blue"/><path d="M166.65,14.18h-3.1v4.15h-2.86v-11h2.86v4h3.1v-4h2.87v11h-2.87Z" style="fill:blue"/><path d="M172,8.62a4.9,4.9,0,0,1,3.76-1.47,4.84,4.84,0,0,1,3.74,1.47,5.93,5.93,0,0,1,1.45,4.23,5.87,5.87,0,0,1-1.43,4.21,5.49,5.49,0,0,1-7.5,0,5.93,5.93,0,0,1-1.44-4.23A6,6,0,0,1,172,8.62Zm3.76,7.22c1.54,0,2.3-1,2.3-3s-.76-3-2.3-3-2.29,1-2.29,3S174.23,15.84,175.75,15.84Zm-1.06,5.36a1.47,1.47,0,0,1-.38-1,1.34,1.34,0,0,1,.38-1,1.46,1.46,0,0,1,1.08-.39,1.43,1.43,0,0,1,1.06.39,1.34,1.34,0,0,1,.38,1,1.41,1.41,0,0,1-.36,1,1.49,1.49,0,0,1-1.08.39A1.46,1.46,0,0,1,174.69,21.2Z" style="fill:blue"/><path d="M191.41,15.13a5,5,0,0,1-1.67,2.45,4.8,4.8,0,0,1-3,1,4.75,4.75,0,0,1-3.64-1.46,6,6,0,0,1-1.44-4.27,5.93,5.93,0,0,1,1.44-4.22,4.78,4.78,0,0,1,3.67-1.45,4.85,4.85,0,0,1,3,.89,4.3,4.3,0,0,1,1.59,2.32l-2.78.75a2.1,2.1,0,0,0-1.93-1.25c-1.38,0-2.07,1-2.07,3s.69,3,2.07,3a2,2,0,0,0,2-1.46Z" style="fill:blue"/><path d="M67.34,36.39a1.72,1.72,0,0,0,1.87,1.33c.9,0,1.34-.31,1.34-.92,0-.39-.25-.68-.75-.89-.17,0-.43-.15-.82-.26l-1-.29a6.74,6.74,0,0,1-2.38-1.24,3.74,3.74,0,0,1-1.2-2.92,3.57,3.57,0,0,1,1.23-2.9,5.32,5.32,0,0,1,3.42-1c2.75,0,4.4,1.14,4.95,3.45l-3.23.87A1.61,1.61,0,0,0,69,30.32c-.79,0-1.18.27-1.18.85a1,1,0,0,0,.68.9c.21.09.83.3,1.92.61a5.94,5.94,0,0,1,2.42,1.2A3.72,3.72,0,0,1,74,36.76c0,2.66-1.57,4-4.73,4-2.9,0-4.61-1.16-5.15-3.49Z" style="fill:blue"/><path d="M85.55,35.1a5.89,5.89,0,0,1-1.4,4.23,5.75,5.75,0,0,1-7.57,0,5.85,5.85,0,0,1-1.41-4.23V27.57h3.4V35c0,1.7.61,2.55,1.85,2.55s1.86-.85,1.86-2.55V27.57h3.27V29.3a1,1,0,0,0,.55-1v-.69h1.81v.72a2.63,2.63,0,0,1-2.36,3Z" style="fill:blue"/><path d="M97.87,27.57a4.8,4.8,0,0,1,3.47,1.2,4.49,4.49,0,0,1,1.26,3.37,4.38,4.38,0,0,1-1.26,3.29,4.71,4.71,0,0,1-3.45,1.24H96.54v3.82H93.16V27.57Zm0,6.13q1.35,0,1.35-1.5c0-1-.45-1.51-1.35-1.51H96.54v3Z" style="fill:blue"/><path d="M110.78,35.6h-3.66v4.89h-3.38V27.57h3.38v4.74h3.66V27.57h3.38V40.49h-3.38Z" style="fill:blue"/><path d="M119.16,38.63l-.5,1.86h-3.5l4-12.92h4.18l4,12.92h-3.56l-.52-1.86Zm.83,5.24a1.76,1.76,0,0,1-.44-1.16,1.62,1.62,0,0,1,.44-1.17,1.75,1.75,0,0,1,1.28-.46,1.68,1.68,0,0,1,1.25.46,1.58,1.58,0,0,1,.45,1.17,1.61,1.61,0,0,1-.43,1.16,1.72,1.72,0,0,1-1.27.46A1.75,1.75,0,0,1,120,43.87ZM121.71,33c-.33-1.24-.48-1.83-.46-1.81h-.07s-.13.57-.47,1.79l-.72,2.6h2.44Z" style="fill:blue"/><path d="M137.33,37.8c0-1.28,0-2.44,0-3.48l0-1.18h-.05s-.32.76-1,2.29l-.85,2h-2l-1.83-4.29h-.07l0,1.18c0,1,0,2.2,0,3.48v2.69h-3.33V27.57h3.81l2.45,5.13h.08l2.4-5.13h3.63V40.49h-3.38Z" style="fill:blue"/><path d="M151.09,35.51,149.93,37v3.47h-3.38V27.57h3.38v5.15H150a14.61,14.61,0,0,1,1.06-1.55l2.53-3.6h4l-4,5.26,4.1,7.66h-3.92Z" style="fill:blue"/><path d="M165.68,40.49h-3.36V35.73l-4.23-8.16,3.86,0,1.48,3.34c.46,1,.67,1.49.65,1.48h.07s.2-.47.67-1.48l1.53-3.32h3.54l-4.21,8.16Zm1.44-14.81c-.2.43-.72.63-1.57.63a4.86,4.86,0,0,1-1.34-.24,5.1,5.1,0,0,0-1.35-.24,2.09,2.09,0,0,0-1.48.5l-.52-2.44q.34-.63,1.59-.63a5.33,5.33,0,0,1,1.35.24,4.92,4.92,0,0,0,1.35.24,2,2,0,0,0,1.47-.5Z" style="fill:blue"/><path d="M181.45,30.72v9.77h-3.36V30.72h-3.34V27.57H184.8v3.15Z" style="fill:blue"/><path d="M193.11,35.6h-3.66v4.89h-3.38V27.57h3.38v4.74h3.66V27.57h3.38V40.49h-3.38Z" style="fill:blue"/><path d="M208.42,35.1A5.85,5.85,0,0,1,207,39.33a5.75,5.75,0,0,1-7.57,0A5.89,5.89,0,0,1,198,35.1V27.57h3.4V35c0,1.7.61,2.55,1.84,2.55s1.87-.85,1.87-2.55V27.57h3.27Z" style="fill:blue"/><path d="M213.37,38.63l-.5,1.86h-3.51l4-12.92h4.17l4,12.92H218l-.51-1.86ZM217.25,27l-1.78-1.26L213.68,27l-1.49-1.78,3.28-2.45,3.27,2.45ZM214.2,43.87a1.66,1.66,0,0,1-.44-1.16,1.58,1.58,0,0,1,.44-1.17,1.72,1.72,0,0,1,1.27-.46,1.7,1.7,0,0,1,1.26.46,1.62,1.62,0,0,1,.44,1.17,1.65,1.65,0,0,1-.42,1.16,1.75,1.75,0,0,1-1.28.46A1.72,1.72,0,0,1,214.2,43.87ZM215.92,33c-.34-1.24-.48-1.83-.47-1.81h-.07s-.13.57-.46,1.79l-.72,2.6h2.44Z" style="fill:blue"/><path d="M228.9,30.72v9.77h-3.36V30.72H222.2V27.57h10v3.15Z" style="fill:blue"/><path d="M244.08,30.72v9.77h-3.36V30.72h-3.34V27.57h10v3.15Z" style="fill:blue"/><path d="M255.73,35.6h-3.65v4.89H248.7V27.57h3.38v4.74h3.65V27.57h3.38V40.49h-3.38Z" style="fill:blue"/><path d="M264.12,38.63l-.5,1.86h-3.51l4-12.92h4.17l4,12.92h-3.57l-.51-1.86Zm-1-14.72,2.64-.76,2,3.42h-2.94ZM266.67,33c-.34-1.24-.48-1.83-.47-1.81h-.07s-.13.57-.46,1.79l-.72,2.6h2.44Z" style="fill:blue"/><path d="M276.66,33.77h-.06l0,1v5.7H273.3V27.57h3.41L281,34.31H281V27.57h3.32V40.49h-3.4Z" style="fill:blue"/><path d="M293,35.6h-3.65v4.89H286V27.57h3.38v4.74H293V27.57h3.38V40.49H293Z" style="fill:blue"/><path d="M306.93,27.57a4.82,4.82,0,0,1,3.47,1.2,4.49,4.49,0,0,1,1.25,3.37,4.38,4.38,0,0,1-1.25,3.29,4.73,4.73,0,0,1-3.46,1.24H305.6v3.82h-3.38V27.57Zm0,6.13c.9,0,1.34-.5,1.34-1.5s-.44-1.51-1.34-1.51H305.6v3Z" style="fill:blue"/><path d="M319.84,35.6h-3.66v4.89H312.8V27.57h3.38v4.74h3.66V27.57h3.37V40.49h-3.37Z" style="fill:blue"/><path d="M326.13,29A6.52,6.52,0,0,1,335,29a7,7,0,0,1,1.7,5A7,7,0,0,1,335,39a5.81,5.81,0,0,1-4.44,1.75A5.71,5.71,0,0,1,326.15,39a7,7,0,0,1-1.7-5A7,7,0,0,1,326.13,29Zm6.21-2.1-1.78-1.26-1.79,1.26-1.49-1.78,3.28-2.45,3.27,2.45Zm-1.78,10.62q2.71,0,2.72-3.51t-2.72-3.55c-1.79,0-2.69,1.16-2.69,3.51S328.77,37.56,330.56,37.56Zm1.56-14.19L334.07,20l2.64.76-1.64,2.65Z" style="fill:blue"/><path d="M349.16,35.6h-3.65v4.89h-3.38V27.57h3.38v4.74h3.65V27.57h3.38V40.49h-3.38Z" style="fill:blue"/><path d="M355.46,29a5.79,5.79,0,0,1,4.43-1.73A5.71,5.71,0,0,1,364.3,29a7,7,0,0,1,1.7,5,6.94,6.94,0,0,1-1.68,5,5.78,5.78,0,0,1-4.43,1.75A5.71,5.71,0,0,1,355.48,39a7,7,0,0,1-1.7-5A7,7,0,0,1,355.46,29ZM361.68,27l-1.77-1.26L358.12,27l-1.5-1.78,3.29-2.45,3.27,2.45Zm-1.79,10.6q2.72,0,2.72-3.51t-2.72-3.55c-1.79,0-2.69,1.16-2.69,3.51S358.1,37.56,359.89,37.56ZM365,23.39h-3l-1.64-2.66L363,20Z" style="fill:blue"/><path d="M382.57,36.72a5.89,5.89,0,0,1-2,2.88,6.13,6.13,0,0,1-7.83-.57,7.11,7.11,0,0,1-1.69-5,7,7,0,0,1,1.69-5,6.35,6.35,0,0,1,7.83-.66,5.07,5.07,0,0,1,1.89,2.73l-3.29.89a2.46,2.46,0,0,0-2.27-1.48c-1.63,0-2.44,1.16-2.44,3.49s.81,3.57,2.44,3.57a2.36,2.36,0,0,0,2.36-1.72Z" style="fill:blue"/><path d="M390.79,35.6h-3.66v4.89h-3.38V27.57h3.38v4.74h3.66V27.57h3.38V40.49h-3.38Z" style="fill:blue"/><path d="M395.79,27.57h3.38V40.49h-3.38Zm.19-1,2-3.42,2.64.76-1.65,2.66Z" style="fill:blue"/><path d="M414,37.8c0-1.28,0-2.44,0-3.48l0-1.18H414s-.31.76-1,2.29l-.85,2h-2l-1.83-4.29h-.07v1.18c0,1,0,2.2,0,3.48v2.69H405V27.57h3.8l2.46,5.13h.07l2.4-5.13h3.64V40.49H414Z" style="fill:blue"/><path d="M419,27.57h3.38V40.49H419Z" style="fill:blue"/><path d="M427.37,33.77h-.05l0,1v5.7H424V27.57h3.42l4.25,6.74h.05l0-6.74H435V40.49h-3.4Z" style="fill:blue"/><path d="M443.72,35.6h-3.66v4.89h-3.38V27.57h3.38v4.74h3.66V27.57h3.38V40.49h-3.38Z" style="fill:blue"/><path d="M447.09,50.29H63.16a2,2,0,0,1,0-4H447.09a2,2,0,0,1,0,4Z" style="fill:#fff"/><line x1="63.16" y1="48.29" x2="447.09" y2="48.29" style="fill:none;stroke:blue;stroke-miterlimit:10"/><path d="M70.36,62.58h-3.1v4.16H64.39v-11h2.87v4h3.1v-4h2.87v11H70.36Z" style="fill:red"/><path d="M84,63.54A5,5,0,0,1,82.36,66a5.22,5.22,0,0,1-6.64-.48,6,6,0,0,1-1.45-4.28A5.88,5.88,0,0,1,75.72,57a4.77,4.77,0,0,1,3.66-1.46,4.9,4.9,0,0,1,3,.89A4.37,4.37,0,0,1,84,58.76l-2.78.75a2.1,2.1,0,0,0-1.93-1.25c-1.38,0-2.07,1-2.07,3s.69,3,2.07,3a2,2,0,0,0,2-1.46Z" style="fill:red"/><path d="M92.66,64.45c0-1.08,0-2.07,0-3v-1h0s-.26.64-.83,1.94l-.72,1.7H89.43L87.88,60.5h-.06l0,1c0,.88,0,1.87,0,3v2.29H85v-11h3.23l2.08,4.36h.06l2-4.36h3.09v11H92.66Z" style="fill:red"/><path d="M106.33,63.54A5,5,0,0,1,104.66,66,5.22,5.22,0,0,1,98,65.5a6,6,0,0,1-1.45-4.28A5.88,5.88,0,0,1,98,57a4.77,4.77,0,0,1,3.66-1.46,4.92,4.92,0,0,1,3,.89,4.37,4.37,0,0,1,1.59,2.32l-2.78.75a2.11,2.11,0,0,0-1.93-1.25c-1.38,0-2.07,1-2.07,3s.69,3,2.07,3a2,2,0,0,0,2-1.46Z" style="fill:red"/><path d="M119.64,62.16a5,5,0,0,1-1.19,3.59,4.89,4.89,0,0,1-6.42,0,5,5,0,0,1-1.19-3.59V55.77h2.88v6.31c0,1.44.52,2.17,1.57,2.17s1.58-.73,1.58-2.17V55.77h2.77Z" style="fill:red"/><path d="M123.82,61h0v5.71H121v-11h2.9l3.6,5.72h0l0-5.72h2.82v11h-2.88Z" style="fill:red"/><path d="M131.71,55.77h2.87v11h-2.87Z" style="fill:red"/><path d="M138.57,66.74l-3.14-11h3.22L139.91,61c.5,2.06.72,3,.67,2.85h.06c0-.11.22-1,.64-2.81l1.26-5.23h3.05l-3.13,11Z" style="fill:red"/><path d="M146.43,55.77h7.46v2.68H149.3V60h3.32v2.47H149.3v1.62H154v2.68h-7.54Z" style="fill:red"/><path d="M158.78,63.18h-.69v3.56h-2.87v-11h4.1a4.11,4.11,0,0,1,3,1,3.59,3.59,0,0,1,1,2.72,3.07,3.07,0,0,1-1.72,3l2.14,4.16h-3.32Zm.61-2.3c.7,0,1.06-.41,1.06-1.24s-.36-1.24-1.06-1.24h-1.3v2.48Z" style="fill:red"/><path d="M167,63.26a1.46,1.46,0,0,0,1.58,1.13c.77,0,1.14-.27,1.14-.79,0-.33-.22-.58-.64-.75l-.69-.22-.86-.25a5.73,5.73,0,0,1-2-1.05,3.2,3.2,0,0,1-1-2.47,3,3,0,0,1,1-2.46,4.44,4.44,0,0,1,2.9-.85c2.33,0,3.73,1,4.2,2.93l-2.75.74a1.35,1.35,0,0,0-1.47-1.11c-.67,0-1,.23-1,.72a.84.84,0,0,0,.58.76c.17.08.7.25,1.63.52a5,5,0,0,1,2.05,1,3.16,3.16,0,0,1,1,2.44c0,2.26-1.34,3.38-4,3.38-2.46,0-3.92-1-4.37-3Z" style="fill:red"/><path d="M173.7,55.77h2.87v11H173.7Z" style="fill:red"/><path d="M183.33,58.45v8.29h-2.85V58.45h-2.84V55.77h8.53v2.68Z" style="fill:red"/><path d="M193.15,66.74H190.3v-4l-3.59-6.92H190l1.25,2.83c.39.86.56,1.27.55,1.25h.06s.17-.39.56-1.25l1.3-2.82h3l-3.57,6.92Z" style="fill:red"/><path d="M202.23,57A4.93,4.93,0,0,1,206,55.55,4.87,4.87,0,0,1,209.73,57a5.93,5.93,0,0,1,1.44,4.23,5.92,5.92,0,0,1-1.42,4.22A4.94,4.94,0,0,1,206,67a4.84,4.84,0,0,1-3.74-1.47,5.91,5.91,0,0,1-1.44-4.23A6,6,0,0,1,202.23,57ZM206,64.25c1.53,0,2.3-1,2.3-3s-.77-3-2.3-3-2.29,1-2.29,3S204.47,64.25,206,64.25Z" style="fill:red"/><path d="M215.09,58.45v1.79h3.41v2.67h-3.41v3.83h-2.87v-11h7.32v2.68Z" style="fill:red"/><path d="M229.68,58.45v8.29h-2.85V58.45H224V55.77h8.52v2.68Z" style="fill:red"/><path d="M233.6,55.77h7.45v2.68h-4.59V60h3.32v2.47h-3.32v1.62h4.67v2.68H233.6Z" style="fill:red"/><path d="M251.48,63.54A5,5,0,0,1,249.81,66a5.22,5.22,0,0,1-6.64-.48,6,6,0,0,1-1.44-4.28A5.88,5.88,0,0,1,243.17,57a4.77,4.77,0,0,1,3.66-1.46,4.9,4.9,0,0,1,3,.89,4.37,4.37,0,0,1,1.59,2.32l-2.78.75a2.1,2.1,0,0,0-1.93-1.25c-1.38,0-2.07,1-2.07,3s.69,3,2.07,3a2,2,0,0,0,2-1.46Z" style="fill:red"/><path d="M258.45,62.58h-3.1v4.16h-2.87v-11h2.87v4h3.1v-4h2.87v11h-2.87Z" style="fill:red"/><path d="M265.54,61h0v5.71h-2.82v-11h2.9l3.6,5.72h.05V55.77H272v11h-2.88Z" style="fill:red"/><path d="M274.53,57A5.53,5.53,0,0,1,282,57a6,6,0,0,1,1.44,4.23,5.88,5.88,0,0,1-1.43,4.22A4.92,4.92,0,0,1,278.29,67a4.84,4.84,0,0,1-3.74-1.47,5.91,5.91,0,0,1-1.44-4.23A6,6,0,0,1,274.53,57Zm3.76,7.23c1.54,0,2.3-1,2.3-3s-.76-3-2.3-3-2.28,1-2.28,3S276.77,64.25,278.29,64.25Z" style="fill:red"/><path d="M284.52,55.77h2.87v8.29h4.18v2.68h-7.05Z" style="fill:red"/><path d="M293.36,57a5.52,5.52,0,0,1,7.5,0,6,6,0,0,1,1.44,4.23,5.88,5.88,0,0,1-1.43,4.22,5.5,5.5,0,0,1-7.5,0,6,6,0,0,1-1.44-4.23A5.92,5.92,0,0,1,293.36,57Zm3.76,7.23c1.53,0,2.3-1,2.3-3s-.77-3-2.3-3-2.29,1-2.29,3S295.6,64.25,297.12,64.25Z" style="fill:red"/><path d="M310.49,66.74v-.66h-.05a3.31,3.31,0,0,1-2.43.84,4.58,4.58,0,0,1-3.44-1.41,5.89,5.89,0,0,1-1.47-4.27A6,6,0,0,1,304.52,57a4.61,4.61,0,0,1,3.56-1.46,5.14,5.14,0,0,1,3.05.89,4.39,4.39,0,0,1,1.6,2.32l-2.79.75a1.94,1.94,0,0,0-3.35-.5,3.52,3.52,0,0,0-.6,2.15,3.65,3.65,0,0,0,.63,2.29,2.12,2.12,0,0,0,1.77.8,2.17,2.17,0,0,0,2-.87v-.56H308.2V60.41H313v6.33Z" style="fill:red"/><path d="M319.71,66.74h-2.85v-4l-3.58-6.92h3.27l1.25,2.83c.39.86.57,1.27.55,1.25h.06s.17-.39.57-1.25l1.3-2.82h3l-3.57,6.92Z" style="fill:red"/><path d="M330.57,65.15l-.43,1.59h-3l3.4-11h3.53l3.4,11h-3L334,65.15Zm2.16-4.8c-.29-1.05-.41-1.55-.4-1.54h-.06s-.11.49-.39,1.52l-.61,2.21h2.07Z" style="fill:red"/><path d="M341.2,61h-.05l0,.87v4.84h-2.82v-11h2.89l3.61,5.72h0V55.77h2.82v11h-2.89Z" style="fill:red"/><path d="M353.54,55.77a4.82,4.82,0,0,1,3.72,1.51,5.57,5.57,0,0,1,1.43,4,5.48,5.48,0,0,1-1.41,4,4.87,4.87,0,0,1-3.73,1.48h-4.46v-11Zm-.24,8.29c1.66,0,2.49-.91,2.49-2.74a3,3,0,0,0-.75-2.24,2.26,2.26,0,0,0-1.69-.63H352v5.61Z" style="fill:red"/><path d="M363.31,55.77h7.45v2.68h-4.59V60h3.32v2.47h-3.32v1.62h4.67v2.68h-7.53Z" style="fill:red"/><path d="M376.54,55.77a4.85,4.85,0,0,1,3.73,1.51,5.61,5.61,0,0,1,1.42,4,5.52,5.52,0,0,1-1.4,4,4.88,4.88,0,0,1-3.73,1.48h-4.47v-11Zm-.23,8.29c1.66,0,2.49-.91,2.49-2.74a3,3,0,0,0-.75-2.24,2.28,2.28,0,0,0-1.7-.63H375v5.61Z" style="fill:red"/><path d="M391.61,62.16a5,5,0,0,1-1.19,3.59,4.91,4.91,0,0,1-6.43,0,5,5,0,0,1-1.19-3.59V55.77h2.89v6.31c0,1.44.51,2.17,1.56,2.17s1.58-.73,1.58-2.17V55.77h2.78Z" style="fill:red"/><path d="M402.49,63.54A5,5,0,0,1,400.82,66a5.23,5.23,0,0,1-6.65-.48,6,6,0,0,1-1.44-4.28A5.92,5.92,0,0,1,394.17,57a4.79,4.79,0,0,1,3.67-1.46,4.92,4.92,0,0,1,3,.89,4.43,4.43,0,0,1,1.59,2.32l-2.79.75a2.09,2.09,0,0,0-1.92-1.25c-1.38,0-2.07,1-2.07,3s.69,3,2.07,3a2,2,0,0,0,2-1.46Z" style="fill:red"/><path d="M406.12,65.15l-.42,1.59h-3l3.4-11h3.54l3.4,11h-3l-.44-1.59Zm2.16-4.8c-.28-1.05-.4-1.55-.39-1.54h-.06s-.11.49-.39,1.52l-.61,2.21h2.06Z" style="fill:red"/><path d="M417.85,58.45v8.29H415V58.45h-2.83V55.77h8.52v2.68Z" style="fill:red"/><path d="M421.77,55.77h2.86v11h-2.86Z" style="fill:red"/><path d="M427.11,57a5.52,5.52,0,0,1,7.5,0,6,6,0,0,1,1.44,4.23,5.88,5.88,0,0,1-1.43,4.22,5.5,5.5,0,0,1-7.5,0,6,6,0,0,1-1.44-4.23A5.92,5.92,0,0,1,427.11,57Zm3.76,7.23c1.53,0,2.3-1,2.3-3s-.77-3-2.3-3-2.29,1-2.29,3S429.35,64.25,430.87,64.25Z" style="fill:red"/><path d="M440,61h-.05l0,.87v4.84H437.1v-11H440l3.6,5.72h0V55.77h2.82v11h-2.88Z" style="fill:red"/><path d="M53.54,56.62a1.88,1.88,0,0,0-1-.29l-.28,0H46.47a2.16,2.16,0,0,0-.78.14,2.23,2.23,0,0,0-.84-.14H38.3a2.06,2.06,0,0,0-.33,0l-.21,0a2,2,0,0,0-.43,0H35.51a2.12,2.12,0,0,0-1.21.38,2,2,0,0,0-.93-.36l-.33,0H30.92a2.09,2.09,0,0,0-.81.15,1.92,1.92,0,0,0-.63-.14H26.13a1.92,1.92,0,0,0-1.28.47,2,2,0,0,0-1.28-.47H20.18a1.94,1.94,0,0,0-1.39.62,5.16,5.16,0,0,0-1.62-.66,7.05,7.05,0,0,0-2.57-.06,5.2,5.2,0,0,0-2.29,1A2,2,0,0,0,11,56.38a2.34,2.34,0,0,0-.38,0H8.42a2.06,2.06,0,0,0-1.14.33,2,2,0,0,0-1-.32H4a2,2,0,0,0-2.08,2.06V67a2.26,2.26,0,0,0,0,.26,1.94,1.94,0,0,0,1.81,1.87H6.09a2.1,2.1,0,0,0,1.19-.33,2,2,0,0,0,.92.32h2.49a1.94,1.94,0,0,0,1.61-.84,5.24,5.24,0,0,0,2.09.89l.08,0a1.86,1.86,0,0,0,.75.15h1a1.76,1.76,0,0,0,.76-.16l.16,0a5.31,5.31,0,0,0,1.64-.68,1.92,1.92,0,0,0,1.25.64H21.9a2,2,0,0,0,1-.22,2.11,2.11,0,0,0,.95.22H25.1a2.1,2.1,0,0,0,1-.26,1.88,1.88,0,0,0,.89.25h2.3a2,2,0,0,0,1.51-.59l.06-.07a5,5,0,0,0,1.68.69l.18,0a1.93,1.93,0,0,0,.75.15h1.16a1.85,1.85,0,0,0,.74-.15,5.17,5.17,0,0,0,1.18-.34,4.26,4.26,0,0,0,1.94-1.51,1.94,1.94,0,0,0,1.68,1.76l.34,0h2.17a2,2,0,0,0,1.9-1.28,1.93,1.93,0,0,0,.77,1,2.18,2.18,0,0,0,1.15.31h5.78l.28,0a1.88,1.88,0,0,0,1-.29,1.85,1.85,0,0,0,.87-1.57V65.45A1.87,1.87,0,0,0,53.74,64a2.29,2.29,0,0,0-.51-.32,3.69,3.69,0,0,0,.05-.49v-1c0-.16,0-.32,0-.47a2,2,0,0,0,.51-.33A1.84,1.84,0,0,0,54.41,60V58.19A1.85,1.85,0,0,0,53.54,56.62Z" style="fill:#fff"/><path d="M54.35,28.24c0-.52,0-1.09-.09-1.75-.08-.87-.21-1.76-.38-2.65a26,26,0,0,0-2.25-6.62,26.36,26.36,0,0,0-14.47-13,25.83,25.83,0,0,0-4.31-1.17,21.18,21.18,0,0,0-2.17-.3L30,2.72a1.79,1.79,0,0,0-.57-.09H26.75a1.79,1.79,0,0,0-.57.09l-.64.06a22.23,22.23,0,0,0-2.73.4A26.28,26.28,0,0,0,3.22,20.51,25.81,25.81,0,0,0,2,25.83c-.13,1.09-.17,2.15-.19,3,0,.17,0,.32,0,.43a.76.76,0,0,1,0,.15A22.75,22.75,0,0,0,2,31.78c.11.93.26,1.88.47,2.83a25.84,25.84,0,0,0,2,5.81,26.2,26.2,0,0,0,21.3,14.65c.79.07,1.59.1,2.35.1h.05c.75,0,1.52,0,2.28-.1a26.8,26.8,0,0,0,2.67-.38,25.39,25.39,0,0,0,4.77-1.41,26.23,26.23,0,0,0,16-19.3,26.61,26.61,0,0,0,.46-3.81c0-.21,0-.42,0-.62a2,2,0,0,0,0-.42v-.46A1.54,1.54,0,0,0,54.35,28.24Z" style="fill:#fff"/><path d="M52.58,67.34a.67.67,0,0,0-.28,0H46.67a.58.58,0,0,1-.32,0c0-.1,0-.2,0-.3V58.56c0-.34,0-.31.31-.31H52.3a.54.54,0,0,0,.28,0V60a.55.55,0,0,1-.39.08H49.3c-.36,0-.37,0-.37.36v1.06c0,.2.07.29.28.28H51c.41,0,.45,0,.46.45v1c0,.39-.08.46-.48.46H49.26c-.31,0-.33,0-.33.33s0,.72,0,1.08,0,.29.29.29h3a.6.6,0,0,1,.41.08Z" style="fill:blue"/><path d="M27.69,4.52h.81a.07.07,0,0,1,0,.08,1.44,1.44,0,0,1-.77,0A.05.05,0,0,1,27.69,4.52Z" style="fill:#2e23cd"/><path d="M34.44,67.54h-.76s0-.05,0-.07a1.23,1.23,0,0,1,.71,0S34.46,67.51,34.44,67.54Z" style="fill:#9a94e6"/><path d="M16.1,67.54h-.7s0-.05,0-.07a1.06,1.06,0,0,1,.66,0S16.12,67.51,16.1,67.54Z" style="fill:#9b95e6"/><path d="M52.53,28.7h0v.46h0A.36.36,0,0,1,52.53,28.7Z" style="fill:#eaeaff"/><path d="M28.85,4.52h.35a.06.06,0,0,1,0,.08.38.38,0,0,1-.33,0A.06.06,0,0,1,28.85,4.52Z" style="fill:#b9b8fc"/><path d="M27.09,4.52h.35a.06.06,0,0,1,0,.08.36.36,0,0,1-.32,0A.05.05,0,0,1,27.09,4.52Z" style="fill:#b7b6fb"/><path d="M27.09,4.52v.05a.2.2,0,0,1-.3,0V4.52Z" style="fill:#e6e6fd"/><path d="M29.2,4.57V4.52h.25v.05A.16.16,0,0,1,29.2,4.57Z" style="fill:#e6e5fd"/><path d="M27.43,4.57V4.52h.25v.05A.17.17,0,0,1,27.43,4.57Z" style="fill:#564feb"/><path d="M34.44,67.54v0a.14.14,0,0,1,.2,0v.05Z" style="fill:#e2e1fc"/><path d="M33.68,67.5v0h-.2v-.05A.14.14,0,0,1,33.68,67.5Z" style="fill:#e2e1fc"/><path d="M28.5,4.57V4.52h.2a.08.08,0,0,1,0,.08A.15.15,0,0,1,28.5,4.57Z" style="fill:#4138dc"/><path d="M15.4,67.5v0h-.15v-.05A.1.1,0,0,1,15.4,67.5Z" style="fill:#e4e3fd"/><path d="M28.7,4.57V4.52h.15v.05A.09.09,0,0,1,28.7,4.57Z" style="fill:#5f59ef"/><path d="M16.1,67.54v0a.1.1,0,0,1,.15,0v.05Z" style="fill:#e5e5fd"/><path d="M26.94,60.8c-.12.43-.24.87-.35,1.31l-1.32,5s0,0,0,.07-.05.14-.17.14H23.85c-.13,0-.13,0-.16-.14-.08-.33-.16-.67-.23-1l-1.23-5.34a.74.74,0,0,0,0-.14c-.15,0-.06.14-.06.2,0,.93,0,1.87,0,2.8a.82.82,0,0,1,0,.27c0,.1,0,.2,0,.3,0,.88,0,1.76,0,2.65,0,.48.05.39-.39.4H20.24a.08.08,0,0,1-.07-.07V58.39c0-.12,0-.14.13-.14h3.24c.14,0,.14,0,.17.13.07.3.13.59.19.88.28,1.29.55,2.58.83,3.87a.2.2,0,0,0,.06.14,3.19,3.19,0,0,0,.13-.44c.36-1.46.73-2.93,1.1-4.39,0,0,0-.07,0-.1a.12.12,0,0,1,.13-.09h3.25a.08.08,0,0,1,.08.08V67c0,.3,0,.28-.29.28H27.1c-.09,0-.11,0-.11-.1V61.07c0-.09,0-.18,0-.27a.1.1,0,0,1,0-.07A.08.08,0,0,1,26.94,60.8Z" style="fill:blue"/><path d="M3.82,62.76V58.48c0-.23,0-.23.23-.23H6.19c.11,0,.12,0,.13.11v3.13c0,.31,0,.28.27.28H8.23a.07.07,0,0,0,.08-.08v-3.3c0-.13,0-.14.15-.14h2.29a.07.07,0,0,1,.06.07.76.76,0,0,1,0,.15V67.2c0,.1,0,.12-.12.12H8.38a.07.07,0,0,1-.07-.06V63.88c0-.32,0-.29-.28-.29H6.44c-.1,0-.12,0-.12.12v3.4c0,.19,0,.21-.21.21H3.9s-.08,0-.08-.08a1.77,1.77,0,0,1,0-.23Z" style="fill:blue"/><path d="M33.68,67.5a.44.44,0,0,0-.2,0l-.54-.1a2.85,2.85,0,0,1-1.17-.51,2.46,2.46,0,0,1-.76-1,3.35,3.35,0,0,1-.24-1.25c0-2.06,0-4.11,0-6.17,0-.2,0-.2.19-.2H33.2a.07.07,0,0,1,.06.07,1.62,1.62,0,0,1,0,.22v5.82a2.76,2.76,0,0,0,.06.7.92.92,0,0,0,.78.75,1.2,1.2,0,0,0,.5,0,.83.83,0,0,0,.68-.6,1.71,1.71,0,0,0,.11-.59V58.39c0-.13,0-.14.15-.14h1.81c.12,0,.13,0,.14.15v5.92a4.3,4.3,0,0,1-.15,1.24,2.45,2.45,0,0,1-1.49,1.63,3.43,3.43,0,0,1-1,.26l-.22,0a.45.45,0,0,0-.2,0Z" style="fill:blue"/><path d="M16.25,67.49H15.4a.38.38,0,0,0-.15,0l-.47-.08a3.25,3.25,0,0,1-2.45-2,5.21,5.21,0,0,1-.4-1.55,8.38,8.38,0,0,1,0-1.58A5.58,5.58,0,0,1,12.41,60a3.42,3.42,0,0,1,.81-1.11,3.35,3.35,0,0,1,1.71-.8,5,5,0,0,1,1.88,0,2.92,2.92,0,0,1,2.32,2.39c.05.24.05.49.08.73,0,.07,0,.09-.08.1H17c-.11,0-.12,0-.13-.11v-.18a2.44,2.44,0,0,0-.15-.66,1.29,1.29,0,0,0-.17-.33.94.94,0,0,0-1.45-.07,1.89,1.89,0,0,0-.26.46,3,3,0,0,0-.18.78c0,.27-.05.54-.07.8s0,.52,0,.78a14.12,14.12,0,0,0,.09,1.59,2.66,2.66,0,0,0,.13.61,1.1,1.1,0,0,0,1.3.74,1,1,0,0,0,.82-.71,2.66,2.66,0,0,0,.12-.79.87.87,0,0,1,.05-.31l.3,0,1.71.14h.05c.06,0,.09,0,.08.1a6,6,0,0,1-.11.84,3,3,0,0,1-2.35,2.29Z" style="fill:blue"/><path d="M42.86,63.68v3.47c0,.16,0,.17-.17.17H40.42a.07.07,0,0,1-.07-.08V60.35c0-.11,0-.24,0-.32s-.22,0-.33,0H38.15s-.06,0-.06-.07a.31.31,0,0,1,0-.1V58.34a.1.1,0,0,1,.08-.09h6.7c.26,0,.25,0,.25.24,0,.42,0,.84,0,1.26a1.08,1.08,0,0,1,0,.18s0,.06-.07.06H43c-.09,0-.11,0-.11.1v3.58Z" style="fill:blue"/><path d="M28.7,4.57h.75l1.11.1a19,19,0,0,1,2,.27,24.23,24.23,0,0,1,12.32,6.25A24,24,0,0,1,50,18.08a23.65,23.65,0,0,1,2.09,6.15,23.11,23.11,0,0,1,.35,2.46,17.08,17.08,0,0,1,.09,1.89s0,.08,0,.12v.46c0,.32,0,.64,0,.95a24.76,24.76,0,0,1-.43,3.55,24,24,0,0,1-1.84,5.65A24.4,24.4,0,0,1,32.82,52.9c-.82.15-1.65.27-2.49.35s-1.41.09-2.11.1-1.49,0-2.24-.1a23.42,23.42,0,0,1-5.62-1.17A24.47,24.47,0,0,1,6.2,39.64a24.06,24.06,0,0,1-2.32-8c-.08-.71-.13-1.42-.14-2.14,0-.17,0-.35,0-.52,0-1,.06-1.91.17-2.87A24.69,24.69,0,0,1,5,21.14a24.11,24.11,0,0,1,5.21-8.76A24.31,24.31,0,0,1,23.22,5a21.39,21.39,0,0,1,2.51-.37l1.05-.1H28.7Z" style="fill:blue"/><path d="M22.11,64a2.11,2.11,0,0,1,0-.25V60.5c.09.06.09.06.1.2a.15.15,0,0,0,0,.11c0,.11,0,.22,0,.33V63.7C22.14,63.79,22.17,63.89,22.11,64Z" style="fill:#a4a8fe"/><path d="M26.94,60.8s0,0,0,0,0,0,0,0,0,0,0,0,0,0,0,0h0Z" style="fill:#a9b4fb"/><path d="M28.14,4.73A24.23,24.23,0,0,1,52.36,29,24.26,24.26,0,0,1,28,53.16a24.22,24.22,0,0,1,.14-48.43Z" style="fill:#fff"/><path d="M42.15,13.19h2.27a.43.43,0,0,1,.39.16,22.87,22.87,0,0,1,3.73,5.32A22.14,22.14,0,0,1,50.44,24a20.65,20.65,0,0,1,.38,2.2c.09.72.14,1.44.16,2.16,0,.24,0,.47,0,.71,0,.75,0,1.5-.12,2.26a23.21,23.21,0,0,1-.72,3.77A22.85,22.85,0,0,1,33,51.28a26,26,0,0,1-2.76.44c-.54.05-1.07.06-1.61.09s-1.26,0-1.89,0-1.22-.1-1.82-.18a22.5,22.5,0,0,1-3.8-.87,23,23,0,0,1-15-15.52,21.84,21.84,0,0,1-.64-3c-.1-.74-.17-1.49-.21-2.23s0-1.23,0-1.84A23,23,0,0,1,6.36,22a22.93,22.93,0,0,1,5.12-8.69.4.4,0,0,1,.31-.13h4.78a.09.09,0,0,1,.07.06.08.08,0,0,1,0,.09l-.16.12A19.27,19.27,0,0,0,8.84,26.74c-.05.48-.08,1-.11,1.46s0,.85,0,1.28a18.22,18.22,0,0,0,.17,2.08,18.72,18.72,0,0,0,.9,3.76A19.58,19.58,0,0,0,21,47a19.8,19.8,0,0,0,4.07,1.12,19.46,19.46,0,0,0,2.4.22c.64,0,1.28,0,1.92,0A19.06,19.06,0,0,0,34,47.47a19.56,19.56,0,0,0,12.75-13,19,19,0,0,0,.6-2.67,19.32,19.32,0,0,0-5-16,18.91,18.91,0,0,0-2.57-2.33l-.18-.14s0-.12,0-.12h2.46Z" style="fill:blue"/><path d="M23.16,47.5a18.53,18.53,0,0,1-2.53-.93,27.32,27.32,0,0,1-3.73-2.09l-.58-.39c-.22-.15-.19-.11-.17-.34l.06-.6c.09-.78.17-1.55.26-2.33a16.89,16.89,0,0,1,.23-1.72s0-.05,0-.07a1.37,1.37,0,0,1,.58-.9,1.62,1.62,0,0,1,1.15-.28,11.48,11.48,0,0,1,1.29.3l1,.26h.14a.08.08,0,0,0,0,0,.75.75,0,0,0-.18-.08c-1-.43-2.11-.82-3.18-1.16l-3-1c-1-.32-2-.66-2.94-1a.94.94,0,0,0-.41-.08.82.82,0,0,1-.54-.16.67.67,0,0,1-.26-.76.92.92,0,0,1,.59-.61c.25-.11.51-.2.77-.3L17.5,31a1.57,1.57,0,0,1,.64-.14.84.84,0,0,1,.31.08.68.68,0,0,1,.37.92,1,1,0,0,1-.54.53l-.91.35L14.17,34,14,34s0,0,0,0l0,0,.24-.06c1.29-.37,2.58-.74,3.86-1.15a.56.56,0,0,1,.34,0,20.35,20.35,0,0,1,3.14,1,8,8,0,0,1,1.76,1,3.78,3.78,0,0,1,.62.58,2.11,2.11,0,0,1,.47,1.12,9.86,9.86,0,0,1,0,1.88c0,.31,0,.61-.07.91-.05.55-.11,1.1-.19,1.65S24.09,42,24,42.54l-.27,1.72c-.14.81-.29,1.63-.43,2.45C23.26,47,23.21,47.22,23.16,47.5Z" style="fill:red"/><path d="M33.2,47.48c0-.18-.08-.36-.11-.54-.17-1-.35-2-.52-3-.13-.82-.26-1.65-.38-2.48-.09-.63-.16-1.27-.23-1.9s-.09-1.19-.12-1.78a7.58,7.58,0,0,1,.08-1.43,2,2,0,0,1,.46-1,3.77,3.77,0,0,1,.85-.74,8.6,8.6,0,0,1,1.76-.9,22,22,0,0,1,2.62-.8,1.51,1.51,0,0,1,.47-.09,1.86,1.86,0,0,1,.43.12c1.23.39,2.46.75,3.71,1.09l.1,0s0,0,0,0,0,0,0,0l-.19-.08-2-.75-2-.76a1.11,1.11,0,0,1-.37-.2.85.85,0,0,1-.32-.47.68.68,0,0,1,.32-.78,1,1,0,0,1,.75-.08,1.14,1.14,0,0,1,.26.09l6.44,2.44a1.87,1.87,0,0,1,.4.2.88.88,0,0,1,.37.6.69.69,0,0,1-.41.72.77.77,0,0,1-.42.08.7.7,0,0,0-.38.07c-.64.25-1.29.49-1.93.72-1,.35-2.07.67-3.11,1-1.36.43-2.71.88-4,1.42-.11,0-.25.05-.31.18.13,0,.24,0,.35,0L37.35,38a4.76,4.76,0,0,1,.64-.11,1.59,1.59,0,0,1,1.32.51,1,1,0,0,1,.22.39,3.88,3.88,0,0,1,.14.66c0,.33.07.65.11,1,.06.62.12,1.23.19,1.85s.11,1.12.17,1.68a.19.19,0,0,1-.1.2,27.14,27.14,0,0,1-6.47,3.27l-.31.1Z" style="fill:red"/><path d="M29.92,16.45v.78a.51.51,0,0,1,0,.4,3,3,0,0,1-.61,1.55c-.06.09-.16.17,0,.24s.11.12.11.21a1.81,1.81,0,0,1,0,.23c-.05.42,0,.46.36.61a4.86,4.86,0,0,1,.77.43.24.24,0,0,0,.37,0l.32-.32a.25.25,0,0,1,.38,0c.17.16.34.32.5.49a.25.25,0,0,1,0,.36l-.34.35a.23.23,0,0,0,0,.33,4.54,4.54,0,0,1,.74,1.77.24.24,0,0,0,.27.21,2.57,2.57,0,0,1,.48,0c.22,0,.3.12.28.34a3.85,3.85,0,0,0,0,.48c0,.43,0,.46-.48.47h-.28a.21.21,0,0,0-.24.2,4.85,4.85,0,0,1-.74,1.75.24.24,0,0,0,0,.34l.31.32a.27.27,0,0,1,0,.42c-.15.16-.31.31-.47.46a.25.25,0,0,1-.41,0c-.11-.1-.22-.21-.32-.32a.24.24,0,0,0-.34,0,4.48,4.48,0,0,1-1.38.65.27.27,0,0,0-.22.32c0,.4,0,.8-.06,1.2s-.07.34-.35.35H27.43c-.29,0-.39-.11-.41-.4s0-.76,0-1.13a.39.39,0,0,0-.31-.37,3.57,3.57,0,0,1-1.25-.58.3.3,0,0,0-.46,0,2.91,2.91,0,0,1-.3.31.25.25,0,0,1-.38,0,3.59,3.59,0,0,1-.52-.58.24.24,0,0,1,.06-.35l.34-.3a.21.21,0,0,0,0-.31,4.92,4.92,0,0,1-.75-1.8.24.24,0,0,0-.26-.22,3.84,3.84,0,0,1-.48,0,.26.26,0,0,1-.28-.28q0-.3,0-.6c0-.27.09-.34.35-.35h.43a.23.23,0,0,0,.25-.2,4.26,4.26,0,0,1,.74-1.77.23.23,0,0,0,0-.32,4,4,0,0,0-.34-.37.25.25,0,0,1,0-.4,4.88,4.88,0,0,1,.53-.49.26.26,0,0,1,.4,0,3.17,3.17,0,0,0,.3.34.21.21,0,0,0,.29,0,4.41,4.41,0,0,1,1.13-.56c.14-.05.15-.15.14-.28s-.11-.48.11-.69c.06-.05,0-.08,0-.11a2.57,2.57,0,0,1-.7-1.59.68.68,0,0,1,0-.37,6.85,6.85,0,0,1,.11-.91.33.33,0,0,1,0-.29A10.45,10.45,0,0,1,27,14.64a5,5,0,0,0,.25-.52,4.45,4.45,0,0,0,.37-1.19c0-.17.16-.2.28-.23a.26.26,0,0,1,.31.15,5.27,5.27,0,0,0,.43.62c.26.39.54.76.78,1.17A4.05,4.05,0,0,1,30,16.18.41.41,0,0,1,29.92,16.45Z" style="fill:blue"/><path d="M26.06,17.32v.4c-.13.1-.27,0-.41,0a17.61,17.61,0,0,0-2.8-.22,11.44,11.44,0,0,0-4.75,1,10,10,0,0,0-1.23.7c-.24.15-.25.19-.14.47l1.74,4.24c.6,1.47,1.21,2.95,1.82,4.42L21.8,32c.1.26.14.27.39.17a14.46,14.46,0,0,1,7.94-.78,21.6,21.6,0,0,1,3.93,1.08c.25.09.28.08.38-.18q1.32-3.23,2.63-6.43l2.42-5.93c.14-.34.13-.38-.17-.6a9.15,9.15,0,0,0-4.41-1.79,14.83,14.83,0,0,0-4.51.12c-.17,0-.34.12-.51,0l0-.41.8-.13c.4-.06.81-.1,1.22-.14a12.57,12.57,0,0,1,1.84,0,10.47,10.47,0,0,1,5,1.45,8.85,8.85,0,0,1,1.12.81c.21.18.23.25.14.52a.09.09,0,0,0,0,.14l.17.11.39.27a.33.33,0,0,1,.11.4,1.42,1.42,0,0,1-.08.18.09.09,0,0,0,0,.13l.4.26a.32.32,0,0,1,.11.44c-.26.53-.53,1.06-.8,1.59l-2.26,4.5-2.75,5.46c0,.08-.06.17-.16.22a.44.44,0,0,1-.34,0c-.67-.25-1.35-.49-2-.7A22.74,22.74,0,0,0,30,32c-.52-.08-1-.14-1.55-.18a13.27,13.27,0,0,0-1.41,0,15.29,15.29,0,0,0-4.14.76c-.5.16-1,.34-1.47.53A.32.32,0,0,1,21,32.9l-1.53-3c-1.06-2.08-2.13-4.15-3.19-6.22-.37-.72-.73-1.44-1.1-2.15a.33.33,0,0,1-.05-.29.34.34,0,0,1,.16-.21,2.57,2.57,0,0,0,.33-.18.07.07,0,0,0,0-.11,1.11,1.11,0,0,0-.07-.16.31.31,0,0,1,0-.31.28.28,0,0,1,.11-.13l.55-.31c.11-.07.11-.07.06-.2l-.09-.21A.33.33,0,0,1,16.3,19a8.33,8.33,0,0,1,1.55-.92,10.7,10.7,0,0,1,2.92-.88,15.24,15.24,0,0,1,2.61-.15c.68,0,1.36.08,2,.16Z" style="fill:red"/><path d="M29.92,16.45a4.25,4.25,0,0,0-.45-1.56,7.86,7.86,0,0,0-.54-.87c-.11-.17-.22-.34-.34-.5a1.63,1.63,0,0,1,.08-1.15,1,1,0,0,0,0-.83,5.76,5.76,0,0,0-.78-1.35.56.56,0,0,0,0,.3,4.89,4.89,0,0,1-.5,1.75c-.08.2-.15.41-.22.61a1.59,1.59,0,0,0,0,1,1.18,1.18,0,0,1,.08.31,1.69,1.69,0,0,1-.21.45c-.11.21-.22.41-.34.61a6.55,6.55,0,0,0-.56,1.2,3.57,3.57,0,0,1-1.33-1.2,2.91,2.91,0,0,1-.38-1,2.37,2.37,0,0,1,.09-1.12c.07-.25.16-.49.25-.73a7,7,0,0,0,.28-1,3.23,3.23,0,0,0,0-1.35S25,10,25,10s0-.17.13-.14a1,1,0,0,1,.67.67c0,.16.07.31.1.47l.06.42c.13,0,.07-.12.07-.19,0-.35,0-.71,0-1.07a3.43,3.43,0,0,1,.09-.44,1.46,1.46,0,0,1,.58-.8l.15-.09A.35.35,0,0,0,27,8.26a2.79,2.79,0,0,0-.19-.33c-.07-.13-.16-.25-.24-.38a1.83,1.83,0,0,1-.14-.32.86.86,0,0,1,.16-.83,2.44,2.44,0,0,1,.8-.55.07.07,0,0,1,.09,0,.08.08,0,0,1,0,.09l-.13.15c-.07.1-.14.19-.2.29a.35.35,0,0,0,0,.46,1.75,1.75,0,0,0,.23.24l.65.56a2.39,2.39,0,0,1,.23.22,1.18,1.18,0,0,1,.3.93l0,.33c0,.06,0,.13,0,.19s0,0,0,0a.19.19,0,0,1,.07-.11,2.74,2.74,0,0,1,.71-.73.08.08,0,0,1,.1,0,.09.09,0,0,1,0,.09.25.25,0,0,1,0,.07c0,.14,0,.28-.08.42a1.9,1.9,0,0,0,0,.75c0,.3.13.6.21.9.11,0,.15-.12.18-.22a3.12,3.12,0,0,0,.09-.44,1.48,1.48,0,0,1,.1-.36.45.45,0,0,1,.24-.25.11.11,0,0,1,.12,0,.11.11,0,0,1,0,.11,2.72,2.72,0,0,0,.16,1.57c.12.37.28.72.43,1.07a9.83,9.83,0,0,1,.44,1.18A2.12,2.12,0,0,1,31.27,15,3.27,3.27,0,0,1,29.92,16.45Z" style="fill:red"/><path d="M10.74,32.92a.73.73,0,0,1-.38-.08.62.62,0,0,1-.31-.85.94.94,0,0,1,.56-.51l1-.38,5-1.91a1.93,1.93,0,0,1,.34-.11.91.91,0,0,1,.6.12.64.64,0,0,1,.27.72.89.89,0,0,1-.5.54,3.07,3.07,0,0,1-.42.17l-5.75,2.18A1.08,1.08,0,0,1,10.74,32.92Z" style="fill:red"/><path d="M45.63,32.92a1.07,1.07,0,0,1-.47-.1l-2.42-.92L39.2,30.56l-.24-.1A.88.88,0,0,1,38.5,30a.63.63,0,0,1,.32-.83.89.89,0,0,1,.73,0l1,.37,5.14,1.95a1.16,1.16,0,0,1,.5.33.7.7,0,0,1,.19.53.62.62,0,0,1-.45.55A.58.58,0,0,1,45.63,32.92Z" style="fill:red"/><path d="M39.9,27.24a1.06,1.06,0,0,1,.39.09l2.67,1L46,29.51a1.35,1.35,0,0,1,.34.17.74.74,0,0,1,.32.59.55.55,0,0,1-.3.52.82.82,0,0,1-.68.07l-.19-.07-5.68-2.15a1.31,1.31,0,0,1-.4-.22.72.72,0,0,1-.27-.51.59.59,0,0,1,.31-.57A.83.83,0,0,1,39.9,27.24Z" style="fill:red"/><path d="M16.46,27.24a.75.75,0,0,1,.37.09.59.59,0,0,1,.3.78.82.82,0,0,1-.47.46l-.54.21-5.31,2a2,2,0,0,1-.33.09.75.75,0,0,1-.49-.08A.6.6,0,0,1,9.7,30a.86.86,0,0,1,.49-.48l.49-.19,5.3-2A1.41,1.41,0,0,1,16.46,27.24Z" style="fill:red"/><path d="M40.46,25.43a1.3,1.3,0,0,1,.43.11L45,27.12l1.13.43a1,1,0,0,1,.16.06.91.91,0,0,1,.37.33.58.58,0,0,1-.38.87.92.92,0,0,1-.54,0l-1.38-.52-3.94-1.5-.26-.1a.78.78,0,0,1-.38-.42.55.55,0,0,1,.27-.7A.75.75,0,0,1,40.46,25.43Z" style="fill:red"/><path d="M16.57,26a.7.7,0,0,1-.41.61,1.36,1.36,0,0,1-.25.11L11.52,28.4l-1,.37a.92.92,0,0,1-.52,0,.57.57,0,0,1-.36-.9.83.83,0,0,1,.43-.33l1-.38,4.38-1.66.24-.08a.69.69,0,0,1,.56.07A.52.52,0,0,1,16.57,26Z" style="fill:red"/><path d="M10.13,26.84a.53.53,0,0,1-.22,0,.5.5,0,0,1-.3-.71.73.73,0,0,1,.41-.36l.75-.29,3.91-1.51a2,2,0,0,1,.26-.09.59.59,0,0,1,.37,0,.5.5,0,0,1,.3.73.69.69,0,0,1-.28.28l-.23.1-4.61,1.79A.9.9,0,0,1,10.13,26.84Z" style="fill:red"/><path d="M46.8,26.34a.51.51,0,0,1-.47.5.86.86,0,0,1-.42-.06l-1-.4L41.25,25a.72.72,0,0,1-.2-.09.65.65,0,0,1-.33-.36A.48.48,0,0,1,41,23.9a.58.58,0,0,1,.43-.06l.27.09,4.56,1.76.23.1A.65.65,0,0,1,46.8,26.34Z" style="fill:red"/><path d="M26.07,10.11c0,.43,0,.85,0,1.28a.32.32,0,0,1,0,.09v0l0,0v-.1a.39.39,0,0,0,0-.26c0-.25,0-.49,0-.73A.42.42,0,0,1,26.07,10.11Z" style="fill:#feacab"/><path d="M28.53,9.36c0-.07,0-.15.06-.21s0,.09.06.11l-.07.18C28.49,9.46,28.53,9.4,28.53,9.36Z" style="fill:#feb3b1"/><path d="M29.89,17.64l.79-.14a15.57,15.57,0,0,1,2.81-.2,12.85,12.85,0,0,1,2,.22,9,9,0,0,1,3.86,1.74c.1.08.25.14.28.27s-.07.23-.11.35Q37,26.09,34.49,32.31c0,.09-.05.22-.14.26s-.18,0-.28-.07a20.89,20.89,0,0,0-3.47-1,16.92,16.92,0,0,0-2.14-.28,14.58,14.58,0,0,0-2.29,0,14.27,14.27,0,0,0-4,1c-.33.13-.26.16-.4-.18q-2.57-6.23-5.12-12.46c-.12-.29-.15-.23.13-.41a9.16,9.16,0,0,1,3.13-1.38,13.32,13.32,0,0,1,3.67-.33c.52,0,1,.07,1.56.13l.94.14c0,.13.05.26.08.39a2.22,2.22,0,0,0,.62,1.13.79.79,0,0,0,.15.12l0,.07c-.2,0-.21,0-.2.23s0,.39,0,.58,0,.12-.08.14a4.92,4.92,0,0,0-1.41.71s0,0,0,0l-.44-.47c-.19-.21-.19-.21-.39,0l-.5.46c-.1.09-.1.14,0,.24l.39.42a1.16,1.16,0,0,1,.16.21l-.07.1a4.58,4.58,0,0,0-.82,2c0,.12,0,.13-.14.12h-.73a.11.11,0,0,0-.11.09c0,.3,0,.61,0,.91a.1.1,0,0,0,.11.11l.48,0c.13,0,.27,0,.37,0s.07.24.09.36a4.65,4.65,0,0,0,.71,1.63l.12.18,0,0-.14.14-.37.35c-.18.17-.18.18,0,.36l.49.51c.09.1.13.1.23,0l.51-.48c.09-.08.1-.08.2,0a5.5,5.5,0,0,0,.57.36,4.75,4.75,0,0,0,1,.39c.12,0,.13,0,.14.17,0,.39,0,.77,0,1.16,0,.11,0,.23,0,.35s.05.14.17.15h1.38c.15,0,.18,0,.19-.18,0-.36,0-.72,0-1.08,0-.11,0-.22,0-.33s0-.13,0-.2l.32-.09a4.53,4.53,0,0,0,1.31-.63l.12-.09a.09.09,0,0,1,.14,0l.31.32.2.2c.08.08.13.08.21,0l.6-.58a.12.12,0,0,0,0-.2l-.37-.38-.2-.21c0-.09.07-.13.1-.18a4.42,4.42,0,0,0,.76-1.82s0,0,0-.08,0-.15.18-.15h.68c.09,0,.13,0,.14-.13V24.9c0-.19,0-.39,0-.58s0-.18-.18-.18H32.7c-.26,0-.22,0-.26-.23a5.56,5.56,0,0,0-.19-.7,4.48,4.48,0,0,0-.57-1.11l-.1-.14c0-.08.05-.11.09-.15s.3-.29.44-.44.11-.16,0-.26-.36-.37-.55-.55-.14-.09-.23,0l-.49.48c-.09.09-.09.09-.18,0a4.91,4.91,0,0,0-1.2-.63c-.12,0-.12-.05-.11-.18s0-.34,0-.51,0-.1,0-.15,0-.14-.13-.15h-.17a.11.11,0,0,1,0-.1,3.11,3.11,0,0,0,.74-1.6Z" style="fill:#fffffe"/><path d="M27,27.81a.22.22,0,0,1-.14,0,3.29,3.29,0,0,1-.38-6l.2-.1c.1,0,.12,0,.12.07,0,.42,0,.83.05,1.24l.12,3.37c0,.41,0,.83,0,1.25C27,27.68,27,27.75,27,27.81Z" style="fill:#fffffe"/><path d="M29.14,24.8c0-.89.07-1.78.12-2.67,0-.53,0-.53.45-.24a3.19,3.19,0,0,1,1.54,2.39,3.28,3.28,0,0,1-2.08,3.49l-.12,0s-.05,0-.05,0v-.2l.06-1.36C29.09,25.73,29.11,25.27,29.14,24.8Z" style="fill:#fffffe"/><path d="M27.88,19.58a3.25,3.25,0,0,1-1-.84,1.82,1.82,0,0,1-.34-.81,3.1,3.1,0,0,1,.14-1.68,5.11,5.11,0,0,1,.22-.48l.39-.7A7.31,7.31,0,0,0,27.79,14l.06-.1s0,0,0,0c.09.35.15.7.21,1.06a10.42,10.42,0,0,1,.09,2.23c0,.55-.06,1.11-.14,1.65,0,.23-.08.45-.12.67A.37.37,0,0,1,27.88,19.58Z" style="fill:#fffffe"/><path d="M28.39,14a8.17,8.17,0,0,1,.73,1.11,3.72,3.72,0,0,1,.42,1.87,3.94,3.94,0,0,1-.18,1.19,2.56,2.56,0,0,1-.93,1.31l-.07,0c0-.06,0-.12,0-.17a14.47,14.47,0,0,0,.27-2.45,11.09,11.09,0,0,0-.11-1.73l-.18-1.07C28.32,14,28.3,13.94,28.39,14Z" style="fill:#fffffe"/><path d="M27.28,14.15A1.6,1.6,0,0,1,27.06,13a3.21,3.21,0,0,1,.2-.62l.24-.58a3.48,3.48,0,0,0,.31-1.59v0a.11.11,0,0,1,.07-.06.06.06,0,0,1,.07,0l0,0c.22.35.47.69.66,1.07a2.06,2.06,0,0,1,.2.54.81.81,0,0,1,0,.51,2.19,2.19,0,0,0-.19,1.18.34.34,0,0,1,0,.1,3.13,3.13,0,0,1-.46-.68.17.17,0,0,0-.23-.09l-.1,0c-.12,0-.13.05-.13.19a.34.34,0,0,1,0,.1A4.62,4.62,0,0,1,27.28,14.15Z" style="fill:#fffffe"/><path d="M28.39,14s0,.07-.05.1,0-.1-.05-.15,0-.07.05-.06Z" style="fill:#b6bbee"/><path d="M28.34,13.84s0,0-.05.06,0,0,0-.06a.14.14,0,0,1,0-.06l.06,0A.06.06,0,0,1,28.34,13.84Z" style="fill:#3b45e3"/><path d="M34.84,32.52c.15-.39.31-.79.47-1.19L39.78,20.4c.11-.28.09-.25.31-.1a.68.68,0,0,1,.3.23c0,.1-.09.21-.14.32L35,32.41l-.11.22C34.8,32.63,34.82,32.58,34.84,32.52Z" style="fill:#fffffe"/><path d="M20.18,29.51a1.4,1.4,0,0,1-.09-.17Q18.06,25,16,20.71c0-.08-.07-.15-.1-.23a3.23,3.23,0,0,1,.49-.3c.09.05.1.14.13.22.59,1.41,1.17,2.83,1.75,4.25l1.87,4.54a1.72,1.72,0,0,0,.07.21C20.26,29.46,20.27,29.51,20.18,29.51Z" style="fill:#fffffe"/><path d="M37.16,28.86a0,0,0,0,1,0,.05l0,.05h0c-.1,0-.09,0-.06-.1h0s0-.08,0-.11h0s0-.07,0-.1a1.07,1.07,0,0,1,.07-.19q1.58-3.5,3.17-7l.1-.21a1,1,0,0,1,.28.16c.11.07.11.08,0,.2l-1.35,2.67c-.73,1.45-1.46,2.89-2.18,4.34l-.1.18Z" style="fill:#fffefd"/><path d="M19,28s0,0,0,0l0,.06a0,0,0,0,1,0,0c0,.06,0,.1,0,.11s0,0,0,0l0-.06s0,0,0,0l0-.06L18.39,27Q17,24.32,15.62,21.61a.58.58,0,0,1-.09-.23,1.48,1.48,0,0,1,.27-.16c.07,0,.07.08.09.12l3.05,6.48a.56.56,0,0,1,0,.12A.21.21,0,0,0,19,28Z" style="fill:#fffefc"/><path d="M37.06,28.86s0,.08.06.1a5.13,5.13,0,0,1-.41.81s0,0-.05-.06A6.59,6.59,0,0,1,37.06,28.86Z" style="fill:#fee0dd"/><path d="M19,28.25s0-.07,0-.11a4.74,4.74,0,0,1,.34.72.1.1,0,0,1,0,.05A4.17,4.17,0,0,1,19,28.25Z" style="fill:#fdd9d6"/><path d="M20.18,29.51c.05,0,.05-.07.06-.11a2.13,2.13,0,0,1,.21.49c0,.06,0,.08-.06.07A1.69,1.69,0,0,1,20.18,29.51Z" style="fill:#fddbd7"/><path d="M20.39,30l.06-.07a2.11,2.11,0,0,1,.19.47c0,.05,0,.06-.05.06A2.37,2.37,0,0,1,20.39,30Z" style="fill:#fdc3be"/><path d="M20.59,30.42l.05-.06a1.86,1.86,0,0,1,.17.41s0,0,0,0Z" style="fill:#fcbeb9"/><path d="M34.84,32.52s0,.09,0,.11a.56.56,0,0,1,0,.12.07.07,0,0,1-.07,0s-.06,0,0-.1S34.78,32.57,34.84,32.52Z" style="fill:#fdcbc7"/><path d="M36.05,31.17l-.09.18s0,.1-.07.08,0-.08,0-.11,0-.15.09-.2A.12.12,0,0,1,36.05,31.17Z" style="fill:#fa2f28"/><path d="M20.19,30.47a.69.69,0,0,1,.14.27c-.1-.07-.1-.07-.19-.27C20.15,30.44,20.17,30.44,20.19,30.47Z" style="fill:#fb3029"/><path d="M20.19,30.47h-.05L20,30.16a0,0,0,0,1,.06,0A.87.87,0,0,1,20.19,30.47Z" style="fill:#fb5149"/><path d="M19.74,29.5a.76.76,0,0,1,.11.26,0,0,0,0,1-.06,0l-.1-.2S19.7,29.51,19.74,29.5Z" style="fill:#fc8a85"/><path d="M19.53,29.21a.38.38,0,0,1-.1-.2s0,0,.05,0a.3.3,0,0,1,.1.2S19.55,29.23,19.53,29.21Z" style="fill:#fededa"/><path d="M21.05,31.32a.26.26,0,0,1,.08.21c-.09-.05-.1-.14-.14-.21S21,31.29,21.05,31.32Z" style="fill:#fa332b"/><path d="M36.56,30.08a.28.28,0,0,1-.06.14,0,0,0,0,1-.07,0l.09-.19S36.58,30,36.56,30.08Z" style="fill:#fdbeb9"/><path d="M36.56,30.08l0-.06a.3.3,0,0,1,.08-.16s0,0,0,.05A.4.4,0,0,1,36.56,30.08Z" style="fill:#fdbcb8"/><path d="M36.65,29.91l0-.05a.28.28,0,0,1,.06-.15l.05.06A.3.3,0,0,1,36.65,29.91Z" style="fill:#feeae6"/><path d="M19.48,29h-.05a.11.11,0,0,1-.05-.1l0-.05A.2.2,0,0,1,19.48,29Z" style="fill:#fde9e5"/><path d="M19.53,29.21h0a.11.11,0,0,1,.05.09c0,.06,0,.06,0,.05A.3.3,0,0,1,19.53,29.21Z" style="fill:#fdd2cd"/><path d="M36.43,30.21h.07a.27.27,0,0,1-.09.15s0,0,0,0A.46.46,0,0,1,36.43,30.21Z" style="fill:#fdb6b1"/><path d="M19.74,29.5l0,.06-.05-.1s0-.06.05-.06Z" style="fill:#fc948f"/><path d="M36.2,30.71a.09.09,0,0,1,0-.09s0,0,0,0a.4.4,0,0,1-.09.17A.05.05,0,0,1,36.2,30.71Z" style="fill:#fb8881"/><path d="M36.2,30.71v.08s0,.07,0,.08a0,0,0,0,1-.06,0A.32.32,0,0,1,36.2,30.71Z" style="fill:#fb6c65"/><path d="M19.69,29.4l-.05.06-.05-.11,0-.05A.15.15,0,0,1,19.69,29.4Z" style="fill:#fc9d98"/><path d="M20.89,31a.1.1,0,0,1,.05.1,0,0,0,0,1,0,.07.26.26,0,0,1-.09-.17A0,0,0,0,1,20.89,31Z" style="fill:#fb7a73"/><path d="M36.3,30.62h0a.1.1,0,0,1,.06-.1s0,0,0,0Z" style="fill:#fbb9b3"/><path d="M20.76,30.77h0s0,.06,0,.1,0,0,0,0Z" style="fill:#fcb2ab"/><path d="M20.8,30.87h0c.05,0,.05.06.05.1h0Z" style="fill:#fbada5"/><path d="M20.94,31.14v-.07a.17.17,0,0,1,.06.15s0,0-.05,0Z" style="fill:#fa645d"/><path d="M21,31.22H21s0,.07.05.1H21Z" style="fill:#fb5049"/><path d="M36.34,30.52h0c0-.05,0-.08,0-.1s0,0,0,0Z" style="fill:#fcc7c1"/><path d="M19.79,29.76h.06s0,.06,0,.1a0,0,0,0,1-.06,0Z" style="fill:#fb8a83"/><path d="M19.84,29.86h.06s0,.06.05.1a0,0,0,0,1-.06,0Z" style="fill:#fb7f79"/><path d="M19.89,30H20s0,.06.05.1a0,0,0,0,1-.06,0Z" style="fill:#fa766f"/><path d="M19.94,30.06H20a.24.24,0,0,1,.05.1H20Z" style="fill:#fc6760"/><path d="M36.11,30.87h.06s0,.09-.07.1h0Z" style="fill:#fa7e75"/><path d="M36.05,31.07s0-.08.05-.1h0c0,.05,0,.09-.05.1Z" style="fill:#fa6f66"/><path d="M37.16,28.65a.1.1,0,0,1,0,.1A.09.09,0,0,1,37.16,28.65Z" style="fill:#fee0dd"/><path d="M36.05,31.17l0-.05a.08.08,0,0,1,0-.05h0Z" style="fill:#fa5c53"/><path d="M37.11,28.75a.12.12,0,0,1,0,.11A.12.12,0,0,1,37.11,28.75Z" style="fill:#fee0dd"/><path d="M18.93,28.05a.05.05,0,0,1,0,.06A.05.05,0,0,1,18.93,28.05Z" style="fill:#fdd9d6"/><path d="M37.16,28.86a.05.05,0,0,1,0-.05S37.19,28.85,37.16,28.86Z" style="fill:#fee0dd"/><path d="M19.06,28.1A.06.06,0,0,1,19,28,0,0,0,0,1,19.06,28.1Z" style="fill:#fdd9d6"/><path d="M37.11,29s0,0,0-.05A.05.05,0,0,1,37.11,29Z" style="fill:#fee0dd"/><path d="M19,28.15a.05.05,0,0,1,0,.06A.05.05,0,0,1,19,28.15Z" style="fill:#fdd9d6"/><path d="M19,28a.05.05,0,0,1,0-.06A.05.05,0,0,1,19,28Z" style="fill:#fdd9d6"/><path d="M36.39,30.42h0v-.05h0Z" style="fill:#fcd1cb"/><path d="M25.83,14.46a4.17,4.17,0,0,1-.1.81s0,0,0,.05a.07.07,0,0,1-.08,0,0,0,0,0,1-.05,0c0-.13,0-.27,0-.4a1.89,1.89,0,0,0-.1-.41c-.07-.18-.16-.32-.38-.3s-.11-.06-.13-.13a2.17,2.17,0,0,1,0-.8,5.43,5.43,0,0,1,.4-1.43.36.36,0,0,1,0-.09.06.06,0,0,1,.07,0s.05,0,.05,0a.33.33,0,0,1,0,.1c0,.15-.05.31-.06.47a2.23,2.23,0,0,0,.19,1.08,2.92,2.92,0,0,1,.21.56A2.58,2.58,0,0,1,25.83,14.46Z" style="fill:#fffefd"/><path d="M28.53,9.36s0,.07,0,.08a.19.19,0,0,1,0,.07s0,0,0,0,0,0,0,0A.14.14,0,0,1,28.53,9.36Z" style="fill:#fd4844"/></svg>