<svg xmlns="http://www.w3.org/2000/svg" viewBox="0 0 271.72 300.32"><title>404</title><path d="M10.09,130.36v-2.1A124.83,124.83,0,0,1,134.93,3.43H137A124.83,124.83,0,0,1,261.86,128.26v2.1A124.83,124.83,0,0,1,137,255.2h-2.1A124.84,124.84,0,0,1,10.09,130.36" style="fill:#e4ebf7;fill-rule:evenodd"/><path d="M49.85,133.87a8.28,8.28,0,1,1-16.48-1.53.57.57,0,0,1,0-.13,8.28,8.28,0,0,1,16.47,1.66" style="fill:#fff;fill-rule:evenodd"/><path d="M47.07,137.33l10.48,5.94m.92,6.27L45.82,160.33" style="fill:none;stroke:#fff;stroke-width:2px"/><path d="M50,162.38a5.67,5.67,0,0,1-11.28-1.14h0A5.67,5.67,0,1,1,50,162.38m17.71-16.11a5.71,5.71,0,1,1-11.37-1,.34.34,0,0,0,0-.1,5.71,5.71,0,0,1,11.36,1.14M109.11,29.9h29.82a4.59,4.59,0,1,0,0-9.18l-29.82,0a4.59,4.59,0,1,0,0,9.17m11.41,18.34h29.82a4.59,4.59,0,0,0,0-9.18H120.51a4.59,4.59,0,0,0,0,9.18" style="fill:#fff;fill-rule:evenodd"/><path d="M122.89,29.89h15.79a4.59,4.59,0,0,0-.14,9.18H122.9a4.59,4.59,0,0,0,0-9.17M194.62,138.7a10,10,0,1,1-8.93-10.93,10,10,0,0,1,8.93,10.93" style="fill:#fff;fill-rule:evenodd"/><path d="M189.35,144.78,202,151.94m1.11,7.56-15.26,13" style="fill:none;stroke:#fff;stroke-width:2px"/><path d="M194.76,173.09a6.83,6.83,0,1,1-13.61-1.21c0-.06,0-.11,0-.16a6.83,6.83,0,0,1,13.6,1.37m18.67-16.73a6.88,6.88,0,1,1-13.71-1.27.49.49,0,0,0,0-.12,6.89,6.89,0,0,1,13.7,1.39" style="fill:#fff;fill-rule:evenodd"/><path d="M162,195.35a2.22,2.22,0,1,1-2.22-2.22A2.21,2.21,0,0,1,162,195.35Zm73.34-76.27a2.22,2.22,0,1,1-2.22-2.22,2.21,2.21,0,0,1,2.22,2.22Zm-8.89,35a2.22,2.22,0,1,1-4.44,0h0a2.22,2.22,0,0,1,4.44,0ZM187,110.66a2.23,2.23,0,0,1-4.45.09v-.09a2.23,2.23,0,0,1,4.45,0Zm18.37-15.47a2.22,2.22,0,1,1-4.44.09v-.09a2.22,2.22,0,0,1,4.44,0Zm6.77,88.54a2.23,2.23,0,1,1-4.45,0h0a2.23,2.23,0,0,1,4.45,0Z" style="fill:none;stroke:#fff;stroke-width:2px"/><path d="M224.49,156.33l-1.91,20.18-10.93,6m-27.9-4.68-6.36,9.81H166l-4.5,6.49M185,128.19v-15.8m45.88,7.89-12.84,7.9-15.31-7.91V97.42" style="fill:none;stroke:#fff;stroke-width:2px"/><path d="M176.68,69h-4a4.74,4.74,0,1,1,0-9.48h4a4.74,4.74,0,1,1,0,9.48" style="fill:#fff;fill-rule:evenodd"/><path d="M184.91,33.06a29.48,29.48,0,1,1,29.48,29.48,29.48,29.48,0,0,1-29.48-29.48" style="fill:#1890ff;fill-rule:evenodd"/><path d="M216,41.41a2.65,2.65,0,0,1,.79,1.93,2.73,2.73,0,0,1-.79,2,2.89,2.89,0,0,1-2,.75,2.63,2.63,0,0,1-1.92-.79,2.68,2.68,0,0,1,0-3.86,2.61,2.61,0,0,1,1.93-.75,2.81,2.81,0,0,1,2,.75M220.33,22a6.46,6.46,0,0,1,2.14,5.14,7.12,7.12,0,0,1-1.22,4.25,1.78,1.78,0,0,1-.21.27c-.42.43-1.41,1.34-3,2.7a5.06,5.06,0,0,0-1.43,1.75,5.18,5.18,0,0,0-.53,2.35v.5H212v-.5a7.6,7.6,0,0,1,.71-3.5c.47-1,1.86-2.46,4.18-4.53l.43-.5a4,4,0,0,0,1-2.54A4.1,4.1,0,0,0,211.08,25a4.49,4.49,0,0,0-.76,1.9,2,2,0,0,1-2,1.63h0a2,2,0,0,1-2-2.43,7.2,7.2,0,0,1,2.08-3.78,8.52,8.52,0,0,1,6.25-2.25A8.09,8.09,0,0,1,220.33,22" style="fill:#fff;fill-rule:evenodd"/><path d="M62.13,79.16S83.94,84.52,89.44,95.1c5.57,10.74-6.35,9.26-15.73,4.94C62.85,95,49,88.22,62.13,79.16" style="fill:#ffb594;fill-rule:evenodd"/><path d="M100.58,70.53l-.45,2.89c-.76.49-4.75-2.66-4.75-2.66l-1.65.75-1.34-5.68s6.81-4.59,8.91-5c2.46-.5,9.89.94,10.7,2.28,0,0,1.32.48-2.22.69s-5,.44-6.79,3.13-2.41,3.62-2.41,3.62" style="fill:#ffc6a0;fill-rule:evenodd"/><path d="M138.15,114.39c-2.63-7.72-6.15-13.18-8.92-15.47-3.5-2.91-9.34-2.23-11.37-4.19a5,5,0,0,0-3.21-1.2s-15-3.16-16.83-3.48c-2.37-.41-2.12-.71-6-1.4-1.57-1.91-2.92-1.12-2.92-1.12l-7.11-1.39a2.16,2.16,0,0,0-2.42-1l-2.47-.9C75.2,94.2,69.11,98,69.11,98c1.79,1.12,15.7,8.3,15.7,8.3l5.11,37.11s-3.32,5.69,1.35,9.11c0,0,19.88-3.74,34.92-.33,0,0,3-2.55,1-8.81.52-3,1.39-8.26,1.73-11.62.39.77,2,1.92,3.14,3.48,0,0,9.41-7.37,11.06-14a17,17,0,0,1-2.27-2.46c-.57-.73-.36-2.05-.77-2.71-.66-1.09-1.8-1.38-1.9-1.69" style="fill:#fff;fill-rule:evenodd"/><path d="M111.18,293s4.3,2,7.36,1c2.82-.94,4.53.67,7.08,1.18A17.67,17.67,0,0,0,137.3,294c-.1-5.51-6.89-4-12-6.72-2.56-1.38-3.78-4.72-3.6-8.8h-9.4S111,289,111.18,293" style="fill:#cbd1d1;fill-rule:evenodd"/><path d="M111.16,292.85s2.43,1.27,6.76.66c3.06-.44,3.71.48,7.42,1s10.73-.07,11.82-.9a2.29,2.29,0,0,1-.34,2.07,17.6,17.6,0,0,1-4.81.82c-2,.14-5.8.29-7.61-.5-1.78-1.38-5.24-1.91-5.73-.24a14.08,14.08,0,0,1-7.35-.29Z" style="fill:#2b0849;fill-rule:evenodd"/><path d="M118.43,279.07h3.1s-.11,6.7,4.53,8.56c-4.64.62-8.55-2.3-7.63-8.56" style="fill:#a4aaba;fill-rule:evenodd"/><path d="M67.63,275.43a91.88,91.88,0,0,1-4.48,12.3c-1.8,3.7-4.23,7.5,5.46,7.5,6.65,0,9-.48,7.43-6.6s.26-13.2.26-13.2Z" style="fill:#cbd1d1;fill-rule:evenodd"/><path d="M61.57,292.82S63.67,294,68.2,294c6.08,0,8.25-1.65,8.25-1.65a1.77,1.77,0,0,1-.62,2.17c-1,.85-3.6,1.59-7.39,1.54-4.14-.05-5.83-.57-6.73-1.17a1.29,1.29,0,0,1-.14-2.06" style="fill:#2b0849;fill-rule:evenodd"/><path d="M68.51,277.33a13.25,13.25,0,0,1-.31,2.93,32.26,32.26,0,0,0-1.13,4.14c-.06,1.15,4.53,1.58,5.15,0s1.3-6.43,1.92-7.25-4.91-2.12-5.63.15" style="fill:#a4aaba;fill-rule:evenodd"/><path d="M109.75,281.54l13.38.09s1.3-54.52,1.85-64.4,3.78-43.36,1-63.13l-12.55-.64-22.85.78s-.43,4-1.2,10c-.06.49-.68.84-.74,1.36s.42,1.35.32,2c-2.37,14.08-6.38,33.1-8.75,46.67-.11.67-1.23,1-1.46,2.69,0,.31.21,1.53.12,1.8C72,237.45,67.93,266.55,64.6,280.59H79.21s2.19-8.57,4-17c2.81-12.89,23.11-85,23.11-85l3-.52,1,46.35a3,3,0,0,0,.33,2c.56.78-.56,1.12-.39,2.24l.39,1.8s-.45,7.17-.9,11.89-.09,39.16-.09,39.16" style="fill:#7bb2f9;fill-rule:evenodd"/><path d="M86.18,224.66c1.15.09,4-2,6.95-4.94m23.32,8.45a25.46,25.46,0,0,0,6.11-3.88" style="fill:none;stroke:#648bd8;stroke-linecap:round;stroke-linejoin:round;stroke-width:1.0509999990463257px"/><path d="M117.37,225.13a25.19,25.19,0,0,0,6.1-3.89" style="fill:none;stroke:#648bd8;stroke-linecap:round;stroke-linejoin:round"/><path d="M84.83,227.8a20.36,20.36,0,0,0,6.51-3.37m4.78-69.77c-.27,3.11.3,8.53-4.33,9.13m21.93-10.88s.11,14-1.3,15.07a14.88,14.88,0,0,1-3,1.94m.45-16.45s0,12.88-1.19,24.38m-4.92,1.09s7.21-1.66,9.43-1.66M84.4,208.89c-.31,1.53-.63,3.05-1,4.56a5.08,5.08,0,0,0-1,3.78c.45,1.94-.94,2-5,15.35-1.7,5.59-4.49,18.59-6.35,27.6l-.23,1.12m14.93-60.46c-.28,1.58-.57,3.17-.88,4.75m7.78-50.33-1.19,10.47s-1.1.15-.5,2.24c.11,1.35-2.68,15.78-5.18,30.43m-19.6,79H79.52" style="fill:none;stroke:#648bd8;stroke-linecap:round;stroke-linejoin:round;stroke-width:1.0509999990463257px"/><path d="M126.33,151.25a114,114,0,0,0-35.89.2,28.54,28.54,0,0,1,0,4.15s14.68-2.82,35.67-.31a36.33,36.33,0,0,0,.22-4" style="fill:#192064;fill-rule:evenodd"/><path d="M116.41,154.19v-4.91a.8.8,0,0,0-.78-.81c-2.44-.09-5.07-.11-7.84,0a.83.83,0,0,0-.79.82v4.9a.82.82,0,0,0,.81.82h0c2.39-.06,5-.07,7.73,0a.8.8,0,0,0,.84-.78v0" style="fill:#fff;fill-rule:evenodd"/><path d="M115.3,153.26v-3.08a.64.64,0,0,0-.62-.64c-2-.07-3.91-.07-5.86,0a.65.65,0,0,0-.63.65v3.07a.63.63,0,0,0,.63.64h0c1.93,0,3.86,0,5.79,0a.65.65,0,0,0,.67-.64" style="fill:#192064;fill-rule:evenodd"/><path d="M110.35,278.45h12.34m-11.16-4.89c0,3.39,0,5.79.11,6.51m-.1-12.49c0,1.45,0,2.89,0,4.34M111.08,178l.89,44.64a2.87,2.87,0,0,1-.22,2.69c-.9,1.12,2.47.68.9,2.25s.89,1.12,0,3.36c-.6,1.49-1,21.1-1.1,35.15" style="fill:none;stroke:#648bd8;stroke-linecap:round;stroke-linejoin:round;stroke-width:1.0509999990463257px"/><path d="M57,86.45s-.52,6,7.22,5.56c11.2-.72,9.22-9.35,31.54-21.66a14.75,14.75,0,0,0-2.45-4.74,208.08,208.08,0,0,0-22.58,8C63.93,76.55,57.31,80,57,86.45m57.58,7.63.94-5.37-8.88-11.43-5,5.37-1.74,7.84a.35.35,0,0,0,.11.32,17.94,17.94,0,0,0,14.35,3.54.32.32,0,0,0,.26-.27" style="fill:#ffc6a0;fill-rule:evenodd"/><path d="M104,82.41s-4.53-2.85-2.43-6.85c1.63-3.09,4.52,1.13,4.52,1.13s.52-3.64,3.12-3.64c.52-1,1.56-4.16,1.56-4.16s11.44,2.6,13.52,3.12c0,5.2-2.3,19.42-7.84,19.86-8.89.7-12.45-9.46-12.45-9.46" style="fill:#ffc6a0;fill-rule:evenodd"/><path d="M124,76.47c2.6-2.08,3.47-9.72,3.47-9.72a47.19,47.19,0,0,1-6.64-2c-4.69-2.08-12.8-4.75-17.48,1-9.67,3.22-2,19.82-2,19.82l2.71-3s-3.94-3.29-2.08-6.24c2.17-3.47,3.92,1.07,3.92,1.07A5.33,5.33,0,0,1,109.4,74c.36-.71,1-2.68,1.43-3.85a1.09,1.09,0,0,1,1.27-.71c2.4.56,8.67,2,11.35,2.67a1.07,1.07,0,0,1,.82,1.15Z" style="fill:#520038;fill-rule:evenodd"/><path d="M115.07,79.09a1,1,0,0,1-1.07,1,1,1,0,0,1-.7-1.26.92.92,0,1,1,1.77.3m7.15,1.63a.92.92,0,1,1-.69-1.25,1,1,0,0,1,.69,1.25" style="fill:#552950;fill-rule:evenodd"/><path d="M120.22,77.87l-.89,1.61-.3,4.35H116.8" style="fill:none;stroke:#db836e;stroke-linecap:round;stroke-linejoin:round;stroke-width:1.1180000305175781px"/><path d="M120.94,77.51s1.79-.72,2.5.54" style="fill:none;stroke:#5c2552;stroke-linecap:round;stroke-linejoin:round;stroke-width:1.1180000305175781px"/><path d="M102.48,77.31s.48-1.11,1.11-.72,1.28,1.44.56,2,.16,1.67.16,1.67" style="fill:none;stroke:#db836e;stroke-linecap:round;stroke-linejoin:round;stroke-width:1.1180000305175781px"/><path d="M113.38,76a7.74,7.74,0,0,0,4.14,1" style="fill:none;stroke:#5c2552;stroke-linecap:round;stroke-linejoin:round;stroke-width:1.1180000305175781px"/><path d="M113.78,84.79A10.81,10.81,0,0,0,118.15,86m-3.42,1.36a4,4,0,0,0,1.51.31m-11.45-3.42a11.4,11.4,0,0,0,10.42,7.64" style="fill:none;stroke:#db836e;stroke-linecap:round;stroke-linejoin:round;stroke-width:1.1180000305175781px"/><path d="M91.54,92.41s.45,5.65-4.93,12.79M79.09,85.68s-.72,9.28-8.2,14.21" style="fill:none;stroke:#e4ebf7;stroke-linecap:round;stroke-linejoin:round;stroke-width:1.1009999513626099px"/><path d="M139.49,125.89s-5.27,7.4-9.42,10.77" style="fill:none;stroke:#e4ebf7;stroke-linecap:round;stroke-linejoin:round;stroke-width:1.0509999990463257px"/><path d="M129.4,110.36s.45,4.36-2.12,32.06" style="fill:none;stroke:#e4ebf7;stroke-linecap:round;stroke-linejoin:round;stroke-width:1.1009999513626099px"/><path d="M160.12,154.26H110.28a1,1,0,0,1-1-1V121.56a1,1,0,0,1,1-1h49.84a1,1,0,0,1,1,1v31.69a1,1,0,0,1-1,1" style="fill:#f2d7ad;fill-rule:evenodd"/><path d="M160.38,154.26H140.52V120.55H161.3v32.79a.92.92,0,0,1-.92.92" style="fill:#f4d19d;fill-rule:evenodd"/><path d="M133.65,130.92H103a.51.51,0,0,1-.52-.51.53.53,0,0,1,.09-.3L109,121a1.06,1.06,0,0,1,.85-.44h31.1Z" style="fill:#f2d7ad;fill-rule:evenodd"/><path d="M133.78,131.47H109.34V131h24.17l7.18-10.26.43.29Z" style="fill:#cc9b6e;fill-rule:evenodd"/><path d="M168.39,130.92H149.72a2.06,2.06,0,0,1-1.66-.83l-7.15-9.54h20a1.58,1.58,0,0,1,1.25.62l6.69,8.92a.52.52,0,0,1-.11.73.5.5,0,0,1-.31.1" style="fill:#f4d19d;fill-rule:evenodd"/><path d="M167.94,131.51H148.56L140.7,121l.41-.31,7.7,10.27h19.13Zm-27.29,22.2,0-8.17h.52l0,8.18Z" style="fill:#cc9b6e;fill-rule:evenodd"/><path d="M140.6,142.81l-.08-21.41H141l.08,21.42Z" style="fill:#cc9b6e;fill-rule:evenodd"/><path d="M164.41,134.92l-3.12-2,0,3.51-1,.1c-1.68.11-3.63.23-4.79.23-1.9,0-2.69,2.25,2.23,2.64l-2.64-.59s-2.17,1.31.5,2.3c0,0-1.58,1.21.56,2.58-.58,3.5,5.25,4.06,7.12,3.59a6.14,6.14,0,0,0,4.49-5.16,7.58,7.58,0,0,0-3.35-7.24" style="fill:#ffc6a0;fill-rule:evenodd"/><path d="M163.78,136.6s-6.52.47-8.36.38-1.91,2.19,2.36,2.26a41.09,41.09,0,0,0,5.45,0" style="fill:none;stroke:#db836e;stroke-linecap:round;stroke-linejoin:round;stroke-width:1.0509999990463257px"/><path d="M155.25,138.9c-1.85,1.35.56,2.36.56,2.36a23.18,23.18,0,0,0,6.73.62" style="fill:none;stroke:#db836e;stroke-linecap:round;stroke-linejoin:round;stroke-width:1.0509999990463257px"/><path d="M162,144.74s-6.28.11-6.73-2.13c-.22-1.35.45-1.41.45-1.41m.51,2.7s-1.11,3.16,5.44,3.53M161.29,133v3.48M62.93,92.31c3.53-.33,8.42-1.24,13.58-7.75" style="fill:none;stroke:#db836e;stroke-linecap:round;stroke-linejoin:round;stroke-width:1.0509999990463257px"/><path d="M178.66,251.35A6.64,6.64,0,0,1,172,244.7h0V178.23a6.65,6.65,0,0,1,13.29,0V244.7a6.65,6.65,0,0,1-6.65,6.65h0" style="fill:#5ba02e;fill-rule:evenodd"/><path d="M186.63,250.68A6.64,6.64,0,0,1,180,244V210.8a6.65,6.65,0,1,1,13.29-.16V244a6.65,6.65,0,0,1-6.65,6.65h0" style="fill:#92c110;fill-rule:evenodd"/><path d="M196.53,296.64H169a3.19,3.19,0,0,1-3.19-3.19h0V247.32a3.19,3.19,0,0,1,3.19-3.19h27.52a3.19,3.19,0,0,1,3.19,3.19v46.13a3.19,3.19,0,0,1-3.19,3.19h0" style="fill:#f2d7ad;fill-rule:evenodd"/><path d="M99.07,92.51s7.78,5.38,16.6,2.84" style="fill:none;stroke:#e4ebf7;stroke-linecap:round;stroke-linejoin:round;stroke-width:1.1009999513626099px"/></svg>